<svg id="Layer_1" data-name="Layer 1" xmlns="http://www.w3.org/2000/svg" xmlns:xlink="http://www.w3.org/1999/xlink" width="6.71in" height="4.18in" viewBox="0 0 483 301.25">
  <defs>
    <style>
      .cls-1 {
        fill: #fff;
      }

      .cls-2 {
        font-size: 89px;
        font-family: MARSNEVENEKSK;
      }
    </style>
  </defs>
  <title>vinylAssets</title>
  <g>
    <rect class="cls-1" x="62" y="196" width="421" height="105.25"/>
    <path d="M125.87,498.41h0a3.62,3.62,0,0,1,3.62,3.62v4.61a3.62,3.62,0,0,1-3.62,3.63h0a3.62,3.62,0,0,1-3.62-3.63V502A3.62,3.62,0,0,1,125.87,498.41Z" transform="translate(45 -256)"/>
    <path d="M139,487.08h0a3.62,3.62,0,0,1,3.62,3.63V518a3.62,3.62,0,0,1-3.62,3.62h0a3.62,3.62,0,0,1-3.61-3.62V490.71A3.62,3.62,0,0,1,139,487.08Z" transform="translate(45 -256)"/>
    <path d="M151.44,475.76h.17a3.53,3.53,0,0,1,3.53,3.53v50.1a3.52,3.52,0,0,1-3.53,3.52h-.17a3.54,3.54,0,0,1-3.54-3.53V479.3A3.54,3.54,0,0,1,151.44,475.76Z" transform="translate(45 -256)"/>
    <path d="M164.6,479.53h.17a3.53,3.53,0,0,1,3.53,3.53v42.55a3.53,3.53,0,0,1-3.53,3.53h-.17a3.53,3.53,0,0,1-3.54-3.54V483.07A3.54,3.54,0,0,1,164.6,479.53Z" transform="translate(45 -256)"/>
    <path d="M177.75,483.31h.18a3.53,3.53,0,0,1,3.52,3.52v35a3.53,3.53,0,0,1-3.52,3.53h-.18a3.54,3.54,0,0,1-3.53-3.54v-35A3.53,3.53,0,0,1,177.75,483.31Z" transform="translate(45 -256)"/>
    <path d="M190.9,487.08h.18a3.53,3.53,0,0,1,3.53,3.53v27.45a3.53,3.53,0,0,1-3.53,3.53h-.17a3.54,3.54,0,0,1-3.54-3.54V490.61A3.53,3.53,0,0,1,190.9,487.08Z" transform="translate(45 -256)"/>
    <path d="M204.07,487.08h.17a3.53,3.53,0,0,1,3.53,3.53v27.45a3.53,3.53,0,0,1-3.53,3.53h-.17a3.53,3.53,0,0,1-3.54-3.54V490.62A3.54,3.54,0,0,1,204.07,487.08Z" transform="translate(45 -256)"/>
    <path d="M217.22,483.31h.18a3.53,3.53,0,0,1,3.52,3.52v35a3.53,3.53,0,0,1-3.52,3.53h-.18a3.54,3.54,0,0,1-3.53-3.54v-35A3.53,3.53,0,0,1,217.22,483.31Z" transform="translate(45 -256)"/>
    <path d="M230.38,487.08h.17a3.53,3.53,0,0,1,3.53,3.53v27.45a3.53,3.53,0,0,1-3.53,3.53h-.18a3.53,3.53,0,0,1-3.53-3.53V490.62A3.55,3.55,0,0,1,230.38,487.08Z" transform="translate(45 -256)"/>
    <path d="M243.53,472h.18a3.51,3.51,0,0,1,3.52,3.52v57.65a3.53,3.53,0,0,1-3.53,3.53h-.17a3.53,3.53,0,0,1-3.53-3.53V475.52A3.53,3.53,0,0,1,243.53,472Z" transform="translate(45 -256)"/>
    <path d="M256,490.86h.17a3.53,3.53,0,0,1,3.53,3.53v19.9a3.53,3.53,0,0,1-3.52,3.53H256a3.54,3.54,0,0,1-3.53-3.54V494.39A3.53,3.53,0,0,1,256,490.86Z" transform="translate(45 -256)"/>
    <path d="M269.19,472h.17a3.52,3.52,0,0,1,3.53,3.52v57.65a3.53,3.53,0,0,1-3.53,3.53h-.17a3.55,3.55,0,0,1-3.54-3.54V475.52A3.54,3.54,0,0,1,269.19,472Z" transform="translate(45 -256)"/>
    <path d="M282.35,475.76h.17a3.53,3.53,0,0,1,3.53,3.53v50.09a3.54,3.54,0,0,1-3.54,3.53h-.17a3.53,3.53,0,0,1-3.53-3.53V479.3A3.53,3.53,0,0,1,282.35,475.76Z" transform="translate(45 -256)"/>
    <path d="M295.58,490.86h0a3.62,3.62,0,0,1,3.62,3.62v19.71a3.63,3.63,0,0,1-3.62,3.63h0a3.63,3.63,0,0,1-3.61-3.63V494.48A3.62,3.62,0,0,1,295.58,490.86Z" transform="translate(45 -256)"/>
    <path d="M308.74,472h0a3.62,3.62,0,0,1,3.62,3.62v57.45a3.62,3.62,0,0,1-3.62,3.63h0a3.62,3.62,0,0,1-3.62-3.63V475.61A3.62,3.62,0,0,1,308.74,472Z" transform="translate(45 -256)"/>
    <path d="M321.9,490.86h0a3.62,3.62,0,0,1,3.61,3.62v19.71a3.63,3.63,0,0,1-3.61,3.63h0a3.63,3.63,0,0,1-3.62-3.63V494.48A3.62,3.62,0,0,1,321.9,490.86Z" transform="translate(45 -256)"/>
    <path d="M335.05,494.63h0a3.62,3.62,0,0,1,3.62,3.62v12.17a3.62,3.62,0,0,1-3.62,3.62h0a3.62,3.62,0,0,1-3.62-3.62V498.25A3.62,3.62,0,0,1,335.05,494.63Z" transform="translate(45 -256)"/>
    <path d="M348.21,498.41h0a3.62,3.62,0,0,1,3.62,3.62v4.61a3.62,3.62,0,0,1-3.62,3.63h0a3.62,3.62,0,0,1-3.62-3.63V502A3.62,3.62,0,0,1,348.21,498.41Z" transform="translate(45 -256)"/>
    <path d="M360.71,487.08h0a3.61,3.61,0,0,1,3.61,3.63V518a3.61,3.61,0,0,1-3.61,3.62h0a3.62,3.62,0,0,1-3.62-3.62V490.71A3.62,3.62,0,0,1,360.71,487.08Z" transform="translate(45 -256)"/>
    <path d="M373.86,487.08h0a3.62,3.62,0,0,1,3.62,3.63V518a3.62,3.62,0,0,1-3.62,3.62h0a3.62,3.62,0,0,1-3.61-3.62V490.71A3.62,3.62,0,0,1,373.86,487.08Z" transform="translate(45 -256)"/>
    <path d="M387,472h0a3.62,3.62,0,0,1,3.62,3.62v57.45a3.62,3.62,0,0,1-3.62,3.63h0a3.62,3.62,0,0,1-3.62-3.63V475.61A3.62,3.62,0,0,1,387,472Z" transform="translate(45 -256)"/>
    <path d="M400.18,487.08h0a3.62,3.62,0,0,1,3.61,3.63V518a3.62,3.62,0,0,1-3.61,3.62h0a3.62,3.62,0,0,1-3.62-3.62V490.71A3.62,3.62,0,0,1,400.18,487.08Z" transform="translate(45 -256)"/>
    <path d="M413.33,498.41h0A3.62,3.62,0,0,1,417,502v4.61a3.62,3.62,0,0,1-3.62,3.63h0a3.62,3.62,0,0,1-3.62-3.63V502A3.62,3.62,0,0,1,413.33,498.41Z" transform="translate(45 -256)"/>
    <path d="M69.51,472.76a31.58,31.58,0,1,1-31.57,31.58,31.58,31.58,0,0,1,31.57-31.58M84,518.23a1.94,1.94,0,0,0-.49-2.56,3.84,3.84,0,0,0-.5-.32,31.76,31.76,0,0,0-6.24-2.87,38.91,38.91,0,0,0-12.16-1.93c-1.4.07-2.81.12-4.21.24A53.48,53.48,0,0,0,52.91,512a2.69,2.69,0,0,0-.57.17,1.91,1.91,0,0,0-1.17,2.18,1.88,1.88,0,0,0,1.89,1.59,4.73,4.73,0,0,0,.93-.12,51,51,0,0,1,9.11-1.21,36.75,36.75,0,0,1,7.11.39A29.5,29.5,0,0,1,81,518.77a5.21,5.21,0,0,0,.52.28,2,2,0,0,0,2.46-.78m3.86-8.67a2.47,2.47,0,0,0-.82-3.36l-.37-.22a37.56,37.56,0,0,0-7.77-3.47,47.7,47.7,0,0,0-16.52-2.24,43.32,43.32,0,0,0-7.78,1c-1,.24-2.11.51-3.1.81a2.39,2.39,0,0,0-1.66,2.26,2.44,2.44,0,0,0,1.52,2.31,2.54,2.54,0,0,0,1.76,0A38.77,38.77,0,0,1,64,505.12a45.7,45.7,0,0,1,8.33.77,37.47,37.47,0,0,1,10.08,3.35c.69.36,1.37.76,2,1.14a2.46,2.46,0,0,0,3.36-.78m.37-8.94a2.92,2.92,0,0,0,4-1,3,3,0,0,0,.43-1.54,1.53,1.53,0,0,0-.09-.63,2.9,2.9,0,0,0-1.47-1.95,37,37,0,0,0-6.75-3.06,59.1,59.1,0,0,0-17.74-3.05,60.43,60.43,0,0,0-7.37.23,49.63,49.63,0,0,0-6.86,1.05c-.92.21-1.82.44-2.72.73a2.87,2.87,0,0,0-1.94,2.83,2.93,2.93,0,0,0,2.1,2.74,3,3,0,0,0,1.69,0c.91-.24,1.84-.49,2.76-.69a46.93,46.93,0,0,1,7.65-1,58.12,58.12,0,0,1,6.73,0,55.29,55.29,0,0,1,6.43.76A44.72,44.72,0,0,1,84,498.61a35.21,35.21,0,0,1,4.21,2.11" transform="translate(45 -256)"/>
  </g>
  <image width="3840" height="2160" transform="scale(0.09)" xlink:href="spider_grafiti.png"/>
  <text class="cls-2" transform="translate(246.39 120.63)">Kobe </text>
</svg>
