<?xml version='1.0' encoding='us-ascii'?>
<svg height="238.84mm" viewBox="0.0 0.0 358.40 238.84" width="358.40mm" xmlns="http://www.w3.org/2000/svg" xmlns:cc="http://creativecommons.org/ns#" xmlns:dc="http://purl.org/dc/elements/1.1/" xmlns:inkscape="http://www.inkscape.org/namespaces/inkscape" xmlns:rdf="http://www.w3.org/1999/02/22-rdf-syntax-ns#" xmlns:svg="http://www.w3.org/2000/svg" xmlns:xlink="http://www.w3.org/1999/xlink">
<!--
FlexBox3 - Box with living hinge

Created with Boxes.py (https://festi.info/boxes.py)
Creation date: 2021-09-24 00:12:51
Command line (remove spaces between dashes): boxes FlexBox3 - -FingerJoint_angle=90.0 - -FingerJoint_style=rectangular - -FingerJoint_surroundingspaces=1 - -FingerJoint_edge_width=1.0 - -FingerJoint_finger=2.0 - -FingerJoint_play=0.0 - -FingerJoint_space=2.0 - -FingerJoint_width=1.0 - -Flex_stretch=1.05 - -Flex_connection=1.0 - -Flex_distance=0.5 - -Flex_width=5.0 - -x=100.0 - -y=100.0 - -outside=0 - -outside=1 - -z=100.0 - -h=10.0 - -radius=10.0 - -c=1.0 - -thickness=3.12 - -format=svg - -tabs=0.0 - -debug=0 - -labels=0 - -labels=1 - -reference=100 - -burn=0.1
Url: http://www.festi.info/FlexBox3?FingerJoint_angle=90.0&FingerJoint_style=rectangular&FingerJoint_surroundingspaces=1&FingerJoint_edge_width=1.0&FingerJoint_finger=2.0&FingerJoint_play=0.0&FingerJoint_space=2.0&FingerJoint_width=1.0&Flex_stretch=1.05&Flex_connection=1.0&Flex_distance=0.5&Flex_width=5.0&x=100.0&y=100.0&outside=0&outside=1&z=100.0&h=10.0&radius=10.0&c=1.0&thickness=3.12&format=svg&tabs=0.0&debug=0&labels=0&labels=1&reference=100&burn=0.1&render=1
SettingsUrl: http://www.festi.info/FlexBox3?FingerJoint_angle=90.0&FingerJoint_style=rectangular&FingerJoint_surroundingspaces=1&FingerJoint_edge_width=1.0&FingerJoint_finger=2.0&FingerJoint_play=0.0&FingerJoint_space=2.0&FingerJoint_width=1.0&Flex_stretch=1.05&Flex_connection=1.0&Flex_distance=0.5&Flex_width=5.0&x=100.0&y=100.0&outside=0&outside=1&z=100.0&h=10.0&radius=10.0&c=1.0&thickness=3.12&format=svg&tabs=0.0&debug=0&labels=0&labels=1&reference=100&burn=0.1
-->
<title>FlexBox3</title>
<metadata>
<rdf:RDF><cc:Work>
<dc:title>FlexBox - FlexBox3</dc:title>
<dc:date>2021-09-24 00:12:51</dc:date>
<dc:source>http://www.festi.info/FlexBox3?FingerJoint_angle=90.0&amp;FingerJoint_style=rectangular&amp;FingerJoint_surroundingspaces=1&amp;FingerJoint_edge_width=1.0&amp;FingerJoint_finger=2.0&amp;FingerJoint_play=0.0&amp;FingerJoint_space=2.0&amp;FingerJoint_width=1.0&amp;Flex_stretch=1.05&amp;Flex_connection=1.0&amp;Flex_distance=0.5&amp;Flex_width=5.0&amp;x=100.0&amp;y=100.0&amp;outside=0&amp;outside=1&amp;z=100.0&amp;h=10.0&amp;radius=10.0&amp;c=1.0&amp;thickness=3.12&amp;format=svg&amp;tabs=0.0&amp;debug=0&amp;labels=0&amp;labels=1&amp;reference=100&amp;burn=0.1&amp;render=1</dc:source>
<dc:description>Box with living hinge

Created with Boxes.py (https://festi.info/boxes.py)
Command line: boxes FlexBox3 --FingerJoint_angle=90.0 --FingerJoint_style=rectangular --FingerJoint_surroundingspaces=1 --FingerJoint_edge_width=1.0 --FingerJoint_finger=2.0 --FingerJoint_play=0.0 --FingerJoint_space=2.0 --FingerJoint_width=1.0 --Flex_stretch=1.05 --Flex_connection=1.0 --Flex_distance=0.5 --Flex_width=5.0 --x=100.0 --y=100.0 --outside=0 --outside=1 --z=100.0 --h=10.0 --radius=10.0 --c=1.0 --thickness=3.12 --format=svg --tabs=0.0 --debug=0 --labels=0 --labels=1 --reference=100 --burn=0.1
Url: http://www.festi.info/FlexBox3?FingerJoint_angle=90.0&amp;FingerJoint_style=rectangular&amp;FingerJoint_surroundingspaces=1&amp;FingerJoint_edge_width=1.0&amp;FingerJoint_finger=2.0&amp;FingerJoint_play=0.0&amp;FingerJoint_space=2.0&amp;FingerJoint_width=1.0&amp;Flex_stretch=1.05&amp;Flex_connection=1.0&amp;Flex_distance=0.5&amp;Flex_width=5.0&amp;x=100.0&amp;y=100.0&amp;outside=0&amp;outside=1&amp;z=100.0&amp;h=10.0&amp;radius=10.0&amp;c=1.0&amp;thickness=3.12&amp;format=svg&amp;tabs=0.0&amp;debug=0&amp;labels=0&amp;labels=1&amp;reference=100&amp;burn=0.1&amp;render=1
SettingsUrl: http://www.festi.info/FlexBox3?FingerJoint_angle=90.0&amp;FingerJoint_style=rectangular&amp;FingerJoint_surroundingspaces=1&amp;FingerJoint_edge_width=1.0&amp;FingerJoint_finger=2.0&amp;FingerJoint_play=0.0&amp;FingerJoint_space=2.0&amp;FingerJoint_width=1.0&amp;Flex_stretch=1.05&amp;Flex_connection=1.0&amp;Flex_distance=0.5&amp;Flex_width=5.0&amp;x=100.0&amp;y=100.0&amp;outside=0&amp;outside=1&amp;z=100.0&amp;h=10.0&amp;radius=10.0&amp;c=1.0&amp;thickness=3.12&amp;format=svg&amp;tabs=0.0&amp;debug=0&amp;labels=0&amp;labels=1&amp;reference=100&amp;burn=0.1
</dc:description>
</cc:Work></rdf:RDF></metadata>
<g id="p-0" style="fill:none;stroke-linecap:round;stroke-linejoin:round;">
  <path d="M 10.100 228.840 H 110.100 V 218.840 H 10.100 V 228.840 Z" stroke="rgb(0,0,0)" stroke-width="0.20" />
  <text alignment-baseline="hanging" font-size="10px" style="font-family: sans-serif ; font-weight: normal; font-style: normal; fill: rgb(0,0,0)" text-anchor="middle" transform="matrix( 1.000 0.000 0.000 1.000 60.100 218.840 )">100mm</text><text alignment-baseline="hanging" font-size="4px" style="font-family: sans-serif ; font-weight: normal; font-style: normal; fill: rgb(255,0,0)" text-anchor="middle" transform="matrix( 1.000 0.000 0.000 1.000 15.100 221.840 )" />
</g>
<g id="p-1" style="fill:none;stroke-linecap:round;stroke-linejoin:round;">
  <text alignment-baseline="hanging" font-size="4px" style="font-family: sans-serif ; font-weight: normal; font-style: normal; fill: rgb(255,0,0)" text-anchor="middle" transform="matrix( 1.000 0.000 0.000 1.000 106.001 160.960 )" /><path d="M 13.220 212.960 H 20.780 C 20.835 212.960 20.880 212.915 20.880 212.860 V 209.840 C 20.880 209.740 20.780 209.840 20.880 209.840 H 26.920 C 27.020 209.840 26.920 209.740 26.920 209.840 V 212.860 C 26.920 212.915 26.965 212.960 27.020 212.960 H 33.260 C 33.315 212.960 33.360 212.915 33.360 212.860 V 209.840 C 33.360 209.740 33.260 209.840 33.360 209.840 H 39.400 C 39.500 209.840 39.400 209.740 39.400 209.840 V 212.860 C 39.400 212.915 39.445 212.960 39.500 212.960 H 45.740 C 45.795 212.960 45.840 212.915 45.840 212.860 V 209.840 C 45.840 209.740 45.740 209.840 45.840 209.840 H 51.880 C 51.980 209.840 51.880 209.740 51.880 209.840 V 212.860 C 51.880 212.915 51.925 212.960 51.980 212.960 H 58.220 C 58.275 212.960 58.320 212.915 58.320 212.860 V 209.840 C 58.320 209.740 58.220 209.840 58.320 209.840 H 64.360 C 64.460 209.840 64.360 209.740 64.360 209.840 V 212.860 C 64.360 212.915 64.405 212.960 64.460 212.960 H 70.700 C 70.755 212.960 70.800 212.915 70.800 212.860 V 209.840 C 70.800 209.740 70.700 209.840 70.800 209.840 H 76.840 C 76.940 209.840 76.840 209.740 76.840 209.840 V 212.860 C 76.840 212.915 76.885 212.960 76.940 212.960 H 83.180 C 83.235 212.960 83.280 212.915 83.280 212.860 V 209.840 C 83.280 209.740 83.180 209.840 83.280 209.840 H 89.320 C 89.420 209.840 89.320 209.740 89.320 209.840 V 212.860 C 89.320 212.915 89.365 212.960 89.420 212.960 H 96.980 H 111.803 C 111.903 212.960 111.803 212.860 111.803 212.960 V 213.860 C 111.803 213.915 111.847 213.960 111.903 213.960 H 120.923 C 121.023 213.960 120.923 213.860 120.923 213.960 V 216.980 C 120.923 217.035 120.967 217.080 121.023 217.080 H 127.263 C 127.318 217.080 127.363 217.035 127.363 216.980 V 213.960 C 127.363 213.860 127.263 213.960 127.363 213.960 H 133.403 C 133.503 213.960 133.403 213.860 133.403 213.960 V 216.980 C 133.403 217.035 133.447 217.080 133.503 217.080 H 139.743 C 139.798 217.080 139.843 217.035 139.843 216.980 V 213.960 C 139.843 213.860 139.743 213.960 139.843 213.960 H 145.883 C 145.983 213.960 145.883 213.860 145.883 213.960 V 216.980 C 145.883 217.035 145.927 217.080 145.983 217.080 H 152.223 C 152.278 217.080 152.323 217.035 152.323 216.980 V 213.960 C 152.323 213.860 152.223 213.960 152.323 213.960 H 158.363 C 158.463 213.960 158.363 213.860 158.363 213.960 V 216.980 C 158.363 217.035 158.407 217.080 158.463 217.080 H 164.703 C 164.758 217.080 164.803 217.035 164.803 216.980 V 213.960 C 164.803 213.860 164.703 213.960 164.803 213.960 H 170.843 C 170.943 213.960 170.843 213.860 170.843 213.960 V 216.980 C 170.843 217.035 170.887 217.080 170.943 217.080 H 177.183 C 177.238 217.080 177.283 217.035 177.283 216.980 V 213.960 C 177.283 213.860 177.183 213.960 177.283 213.960 H 183.323 C 183.423 213.960 183.323 213.860 183.323 213.960 V 216.980 C 183.323 217.035 183.367 217.080 183.423 217.080 H 189.663 C 189.718 217.080 189.763 217.035 189.763 216.980 V 213.960 C 189.763 213.860 189.663 213.960 189.763 213.960 H 198.783 C 198.838 213.960 198.883 213.915 198.883 213.860 V 209.760 C 198.883 209.660 198.783 209.760 198.883 209.760 H 201.903 C 201.958 209.760 202.003 209.715 202.003 209.660 V 203.420 C 202.003 203.365 201.958 203.320 201.903 203.320 H 198.883 C 198.783 203.320 198.883 203.420 198.883 203.320 V 197.280 C 198.883 197.180 198.783 197.280 198.883 197.280 H 201.903 C 201.958 197.280 202.003 197.235 202.003 197.180 V 190.940 C 202.003 190.885 201.958 190.840 201.903 190.840 H 198.883 C 198.783 190.840 198.883 190.940 198.883 190.840 V 184.800 C 198.883 184.700 198.783 184.800 198.883 184.800 H 201.903 C 201.958 184.800 202.003 184.755 202.003 184.700 V 178.460 C 202.003 178.405 201.958 178.360 201.903 178.360 H 198.883 C 198.783 178.360 198.883 178.460 198.883 178.360 V 172.320 C 198.883 172.220 198.783 172.320 198.883 172.320 H 201.903 C 201.958 172.320 202.003 172.275 202.003 172.220 V 165.980 C 202.003 165.925 201.958 165.880 201.903 165.880 H 198.883 C 198.783 165.880 198.883 165.980 198.883 165.880 V 159.840 C 198.883 159.740 198.783 159.840 198.883 159.840 H 201.903 C 201.958 159.840 202.003 159.795 202.003 159.740 V 153.500 C 202.003 153.445 201.958 153.400 201.903 153.400 H 198.883 C 198.783 153.400 198.883 153.500 198.883 153.400 V 147.360 C 198.883 147.260 198.783 147.360 198.883 147.360 H 201.903 C 201.958 147.360 202.003 147.315 202.003 147.260 V 141.020 C 202.003 140.965 201.958 140.920 201.903 140.920 H 198.883 C 198.783 140.920 198.883 141.020 198.883 140.920 V 134.880 C 198.883 134.780 198.783 134.880 198.883 134.880 H 201.903 C 201.958 134.880 202.003 134.835 202.003 134.780 V 128.540 C 202.003 128.485 201.958 128.440 201.903 128.440 H 198.883 C 198.783 128.440 198.883 128.540 198.883 128.440 V 122.400 C 198.883 122.300 198.783 122.400 198.883 122.400 H 201.903 C 201.958 122.400 202.003 122.355 202.003 122.300 V 116.060 C 202.003 116.005 201.958 115.960 201.903 115.960 H 198.883 C 198.783 115.960 198.883 116.060 198.883 115.960 V 111.860 C 198.883 111.805 198.838 111.760 198.783 111.760 H 189.763 C 189.663 111.760 189.763 111.860 189.763 111.760 V 108.740 C 189.763 108.685 189.718 108.640 189.663 108.640 H 183.423 C 183.367 108.640 183.323 108.685 183.323 108.740 V 111.760 C 183.323 111.860 183.423 111.760 183.323 111.760 H 177.283 C 177.183 111.760 177.283 111.860 177.283 111.760 V 108.740 C 177.283 108.685 177.238 108.640 177.183 108.640 H 170.943 C 170.887 108.640 170.843 108.685 170.843 108.740 V 111.760 C 170.843 111.860 170.943 111.760 170.843 111.760 H 164.803 C 164.703 111.760 164.803 111.860 164.803 111.760 V 108.740 C 164.803 108.685 164.758 108.640 164.703 108.640 H 158.463 C 158.407 108.640 158.363 108.685 158.363 108.740 V 111.760 C 158.363 111.860 158.463 111.760 158.363 111.760 H 152.323 C 152.223 111.760 152.323 111.860 152.323 111.760 V 108.740 C 152.323 108.685 152.278 108.640 152.223 108.640 H 145.983 C 145.927 108.640 145.883 108.685 145.883 108.740 V 111.760 C 145.883 111.860 145.983 111.760 145.883 111.760 H 139.843 C 139.743 111.760 139.843 111.860 139.843 111.760 V 108.740 C 139.843 108.685 139.798 108.640 139.743 108.640 H 133.503 C 133.447 108.640 133.403 108.685 133.403 108.740 V 111.760 C 133.403 111.860 133.503 111.760 133.403 111.760 H 127.363 C 127.263 111.760 127.363 111.860 127.363 111.760 V 108.740 C 127.363 108.685 127.318 108.640 127.263 108.640 H 121.023 C 120.967 108.640 120.923 108.685 120.923 108.740 V 111.760 C 120.923 111.860 121.023 111.760 120.923 111.760 H 111.903 C 111.847 111.760 111.803 111.805 111.803 111.860 V 112.760 C 111.803 112.860 111.903 112.760 111.803 112.760 H 96.980 H 89.420 C 89.365 112.760 89.320 112.805 89.320 112.860 V 115.880 C 89.320 115.980 89.420 115.880 89.320 115.880 H 83.280 C 83.180 115.880 83.280 115.980 83.280 115.880 V 112.860 C 83.280 112.805 83.235 112.760 83.180 112.760 H 76.940 C 76.885 112.760 76.840 112.805 76.840 112.860 V 115.880 C 76.840 115.980 76.940 115.880 76.840 115.880 H 70.800 C 70.700 115.880 70.800 115.980 70.800 115.880 V 112.860 C 70.800 112.805 70.755 112.760 70.700 112.760 H 64.460 C 64.405 112.760 64.360 112.805 64.360 112.860 V 115.880 C 64.360 115.980 64.460 115.880 64.360 115.880 H 58.320 C 58.220 115.880 58.320 115.980 58.320 115.880 V 112.860 C 58.320 112.805 58.275 112.760 58.220 112.760 H 51.980 C 51.925 112.760 51.880 112.805 51.880 112.860 V 115.880 C 51.880 115.980 51.980 115.880 51.880 115.880 H 45.840 C 45.740 115.880 45.840 115.980 45.840 115.880 V 112.860 C 45.840 112.805 45.795 112.760 45.740 112.760 H 39.500 C 39.445 112.760 39.400 112.805 39.400 112.860 V 115.880 C 39.400 115.980 39.500 115.880 39.400 115.880 H 33.360 C 33.260 115.880 33.360 115.980 33.360 115.880 V 112.860 C 33.360 112.805 33.315 112.760 33.260 112.760 H 27.020 C 26.965 112.760 26.920 112.805 26.920 112.860 V 115.880 C 26.920 115.980 27.020 115.880 26.920 115.880 H 20.880 C 20.780 115.880 20.880 115.980 20.880 115.880 V 112.860 C 20.880 112.805 20.835 112.760 20.780 112.760 H 13.220 C 13.165 112.760 13.120 112.805 13.120 112.860 V 115.980 V 122.200 C 13.120 122.300 13.220 122.200 13.120 122.200 H 10.100 C 10.045 122.200 10.000 122.245 10.000 122.300 V 128.540 C 10.000 128.595 10.045 128.640 10.100 128.640 H 13.120 C 13.220 128.640 13.120 128.540 13.120 128.640 V 134.680 C 13.120 134.780 13.220 134.680 13.120 134.680 H 10.100 C 10.045 134.680 10.000 134.725 10.000 134.780 V 141.020 C 10.000 141.075 10.045 141.120 10.100 141.120 H 13.120 C 13.220 141.120 13.120 141.020 13.120 141.120 V 147.160 C 13.120 147.260 13.220 147.160 13.120 147.160 H 10.100 C 10.045 147.160 10.000 147.205 10.000 147.260 V 153.500 C 10.000 153.555 10.045 153.600 10.100 153.600 H 13.120 C 13.220 153.600 13.120 153.500 13.120 153.600 V 159.640 C 13.120 159.740 13.220 159.640 13.120 159.640 H 10.100 C 10.045 159.640 10.000 159.685 10.000 159.740 V 165.980 C 10.000 166.035 10.045 166.080 10.100 166.080 H 13.120 C 13.220 166.080 13.120 165.980 13.120 166.080 V 172.120 C 13.120 172.220 13.220 172.120 13.120 172.120 H 10.100 C 10.045 172.120 10.000 172.165 10.000 172.220 V 178.460 C 10.000 178.515 10.045 178.560 10.100 178.560 H 13.120 C 13.220 178.560 13.120 178.460 13.120 178.560 V 184.600 C 13.120 184.700 13.220 184.600 13.120 184.600 H 10.100 C 10.045 184.600 10.000 184.645 10.000 184.700 V 190.940 C 10.000 190.995 10.045 191.040 10.100 191.040 H 13.120 C 13.220 191.040 13.120 190.940 13.120 191.040 V 197.080 C 13.120 197.180 13.220 197.080 13.120 197.080 H 10.100 C 10.045 197.080 10.000 197.125 10.000 197.180 V 203.420 C 10.000 203.475 10.045 203.520 10.100 203.520 H 13.120 C 13.220 203.520 13.120 203.420 13.120 203.520 V 209.740 V 212.860 C 13.120 212.915 13.165 212.960 13.220 212.960" stroke="rgb(0,0,0)" stroke-width="0.20" />
  <path d="M 98.981 212.960 V 196.780 M 98.981 193.660 V 164.420 M 98.981 161.300 V 132.060 M 98.981 128.940 V 112.760 M 100.541 115.880 V 145.120 M 100.541 148.240 V 177.480 M 100.541 180.600 V 209.840 M 102.101 212.960 V 196.780 M 102.101 193.660 V 164.420 M 102.101 161.300 V 132.060 M 102.101 128.940 V 112.760 M 103.661 115.880 V 145.120 M 103.661 148.240 V 177.480 M 103.661 180.600 V 209.840 M 105.221 212.960 V 196.780 M 105.221 193.660 V 164.420 M 105.221 161.300 V 132.060 M 105.221 128.940 V 112.760 M 106.781 115.880 V 145.120 M 106.781 148.240 V 177.480 M 106.781 180.600 V 209.840 M 108.341 212.960 V 196.780 M 108.341 193.660 V 164.420 M 108.341 161.300 V 132.060 M 108.341 128.940 V 112.760 M 109.901 115.880 V 145.120 M 109.901 148.240 V 177.480 M 109.901 180.600 V 209.840" stroke="rgb(0,0,0)" stroke-width="0.20" />
</g>
<g id="p-2" style="fill:none;stroke-linecap:round;stroke-linejoin:round;">
  <text alignment-baseline="hanging" font-size="4px" style="font-family: sans-serif ; font-weight: normal; font-style: normal; fill: rgb(255,0,0)" text-anchor="middle" transform="matrix( 1.000 0.000 0.000 1.000 253.663 165.080 )" /><path d="M 206.783 217.080 H 213.103 C 213.158 217.080 213.203 217.035 213.203 216.980 V 213.960 C 213.203 213.860 213.103 213.960 213.203 213.960 H 219.243 C 219.343 213.960 219.243 213.860 219.243 213.960 V 216.980 C 219.243 217.035 219.287 217.080 219.343 217.080 H 225.583 C 225.638 217.080 225.683 217.035 225.683 216.980 V 213.960 C 225.683 213.860 225.583 213.960 225.683 213.960 H 231.723 C 231.823 213.960 231.723 213.860 231.723 213.960 V 216.980 C 231.723 217.035 231.767 217.080 231.823 217.080 H 238.063 C 238.118 217.080 238.163 217.035 238.163 216.980 V 213.960 C 238.163 213.860 238.063 213.960 238.163 213.960 H 244.203 C 244.303 213.960 244.203 213.860 244.203 213.960 V 216.980 C 244.203 217.035 244.247 217.080 244.303 217.080 H 250.543 C 250.598 217.080 250.643 217.035 250.643 216.980 V 213.960 C 250.643 213.860 250.543 213.960 250.643 213.960 H 256.683 C 256.783 213.960 256.683 213.860 256.683 213.960 V 216.980 C 256.683 217.035 256.727 217.080 256.783 217.080 H 263.023 C 263.078 217.080 263.123 217.035 263.123 216.980 V 213.960 C 263.123 213.860 263.023 213.960 263.123 213.960 H 269.163 C 269.263 213.960 269.163 213.860 269.163 213.960 V 216.980 C 269.163 217.035 269.207 217.080 269.263 217.080 H 275.503 C 275.558 217.080 275.603 217.035 275.603 216.980 V 213.960 C 275.603 213.860 275.503 213.960 275.603 213.960 H 281.643 C 281.743 213.960 281.643 213.860 281.643 213.960 V 216.980 C 281.643 217.035 281.687 217.080 281.743 217.080 H 287.983 C 288.038 217.080 288.083 217.035 288.083 216.980 V 213.960 C 288.083 213.860 287.983 213.960 288.083 213.960 H 294.123 C 294.223 213.960 294.123 213.860 294.123 213.960 V 216.980 C 294.123 217.035 294.167 217.080 294.223 217.080 H 300.543 H 303.663 C 303.718 217.080 303.763 217.035 303.763 216.980 V 213.860 V 207.540 C 303.763 207.485 303.718 207.440 303.663 207.440 H 300.643 C 300.543 207.440 300.643 207.540 300.643 207.440 V 201.400 C 300.643 201.300 300.543 201.400 300.643 201.400 H 303.663 C 303.718 201.400 303.763 201.355 303.763 201.300 V 195.060 C 303.763 195.005 303.718 194.960 303.663 194.960 H 300.643 C 300.543 194.960 300.643 195.060 300.643 194.960 V 188.920 C 300.643 188.820 300.543 188.920 300.643 188.920 H 303.663 C 303.718 188.920 303.763 188.875 303.763 188.820 V 182.580 C 303.763 182.525 303.718 182.480 303.663 182.480 H 300.643 C 300.543 182.480 300.643 182.580 300.643 182.480 V 176.440 C 300.643 176.340 300.543 176.440 300.643 176.440 H 303.663 C 303.718 176.440 303.763 176.395 303.763 176.340 V 170.100 C 303.763 170.045 303.718 170.000 303.663 170.000 H 300.643 C 300.543 170.000 300.643 170.100 300.643 170.000 V 163.960 C 300.643 163.860 300.543 163.960 300.643 163.960 H 303.663 C 303.718 163.960 303.763 163.915 303.763 163.860 V 157.620 C 303.763 157.565 303.718 157.520 303.663 157.520 H 300.643 C 300.543 157.520 300.643 157.620 300.643 157.520 V 151.480 C 300.643 151.380 300.543 151.480 300.643 151.480 H 303.663 C 303.718 151.480 303.763 151.435 303.763 151.380 V 145.140 C 303.763 145.085 303.718 145.040 303.663 145.040 H 300.643 C 300.543 145.040 300.643 145.140 300.643 145.040 V 139.000 C 300.643 138.900 300.543 139.000 300.643 139.000 H 303.663 C 303.718 139.000 303.763 138.955 303.763 138.900 V 132.660 C 303.763 132.605 303.718 132.560 303.663 132.560 H 300.643 C 300.543 132.560 300.643 132.660 300.643 132.560 V 126.520 C 300.643 126.420 300.543 126.520 300.643 126.520 H 303.663 C 303.718 126.520 303.763 126.475 303.763 126.420 V 120.100 V 116.980 C 303.763 116.925 303.718 116.880 303.663 116.880 H 300.543 H 294.223 C 294.167 116.880 294.123 116.925 294.123 116.980 V 120.000 C 294.123 120.100 294.223 120.000 294.123 120.000 H 288.083 C 287.983 120.000 288.083 120.100 288.083 120.000 V 116.980 C 288.083 116.925 288.038 116.880 287.983 116.880 H 281.743 C 281.687 116.880 281.643 116.925 281.643 116.980 V 120.000 C 281.643 120.100 281.743 120.000 281.643 120.000 H 275.603 C 275.503 120.000 275.603 120.100 275.603 120.000 V 116.980 C 275.603 116.925 275.558 116.880 275.503 116.880 H 269.263 C 269.207 116.880 269.163 116.925 269.163 116.980 V 120.000 C 269.163 120.100 269.263 120.000 269.163 120.000 H 263.123 C 263.023 120.000 263.123 120.100 263.123 120.000 V 116.980 C 263.123 116.925 263.078 116.880 263.023 116.880 H 256.783 C 256.727 116.880 256.683 116.925 256.683 116.980 V 120.000 C 256.683 120.100 256.783 120.000 256.683 120.000 H 250.643 C 250.543 120.000 250.643 120.100 250.643 120.000 V 116.980 C 250.643 116.925 250.598 116.880 250.543 116.880 H 244.303 C 244.247 116.880 244.203 116.925 244.203 116.980 V 120.000 C 244.203 120.100 244.303 120.000 244.203 120.000 H 238.163 C 238.063 120.000 238.163 120.100 238.163 120.000 V 116.980 C 238.163 116.925 238.118 116.880 238.063 116.880 H 231.823 C 231.767 116.880 231.723 116.925 231.723 116.980 V 120.000 C 231.723 120.100 231.823 120.000 231.723 120.000 H 225.683 C 225.583 120.000 225.683 120.100 225.683 120.000 V 116.980 C 225.683 116.925 225.638 116.880 225.583 116.880 H 219.343 C 219.287 116.880 219.243 116.925 219.243 116.980 V 120.000 C 219.243 120.100 219.343 120.000 219.243 120.000 H 213.203 C 213.103 120.000 213.203 120.100 213.203 120.000 V 116.980 C 213.203 116.925 213.158 116.880 213.103 116.880 H 206.783 H 203.663 C 203.607 116.880 203.563 116.925 203.563 116.980 V 120.100 V 126.420 C 203.563 126.475 203.607 126.520 203.663 126.520 H 206.683 C 206.783 126.520 206.683 126.420 206.683 126.520 V 132.560 C 206.683 132.660 206.783 132.560 206.683 132.560 H 203.663 C 203.607 132.560 203.563 132.605 203.563 132.660 V 138.900 C 203.563 138.955 203.607 139.000 203.663 139.000 H 206.683 C 206.783 139.000 206.683 138.900 206.683 139.000 V 145.040 C 206.683 145.140 206.783 145.040 206.683 145.040 H 203.663 C 203.607 145.040 203.563 145.085 203.563 145.140 V 151.380 C 203.563 151.435 203.607 151.480 203.663 151.480 H 206.683 C 206.783 151.480 206.683 151.380 206.683 151.480 V 157.520 C 206.683 157.620 206.783 157.520 206.683 157.520 H 203.663 C 203.607 157.520 203.563 157.565 203.563 157.620 V 163.860 C 203.563 163.915 203.607 163.960 203.663 163.960 H 206.683 C 206.783 163.960 206.683 163.860 206.683 163.960 V 170.000 C 206.683 170.100 206.783 170.000 206.683 170.000 H 203.663 C 203.607 170.000 203.563 170.045 203.563 170.100 V 176.340 C 203.563 176.395 203.607 176.440 203.663 176.440 H 206.683 C 206.783 176.440 206.683 176.340 206.683 176.440 V 182.480 C 206.683 182.580 206.783 182.480 206.683 182.480 H 203.663 C 203.607 182.480 203.563 182.525 203.563 182.580 V 188.820 C 203.563 188.875 203.607 188.920 203.663 188.920 H 206.683 C 206.783 188.920 206.683 188.820 206.683 188.920 V 194.960 C 206.683 195.060 206.783 194.960 206.683 194.960 H 203.663 C 203.607 194.960 203.563 195.005 203.563 195.060 V 201.300 C 203.563 201.355 203.607 201.400 203.663 201.400 H 206.683 C 206.783 201.400 206.683 201.300 206.683 201.400 V 207.440 C 206.683 207.540 206.783 207.440 206.683 207.440 H 203.663 C 203.607 207.440 203.563 207.485 203.563 207.540 V 213.860 V 216.980 C 203.563 217.035 203.607 217.080 203.663 217.080 H 206.783" stroke="rgb(0,0,0)" stroke-width="0.20" />
</g>
<g id="p-3" style="fill:none;stroke-linecap:round;stroke-linejoin:round;">
  <text alignment-baseline="hanging" font-size="4px" style="font-family: sans-serif ; font-weight: normal; font-style: normal; fill: rgb(255,0,0)" text-anchor="middle" transform="matrix( 1.000 0.000 0.000 1.000 311.983 160.960 )" /><path d="M 308.543 217.080 H 311.983 C 312.038 217.080 312.083 217.035 312.083 216.980 V 213.960 C 312.083 213.860 311.983 213.960 312.083 213.960 H 315.003 C 315.103 213.960 315.003 213.860 315.003 213.960 V 216.980 C 315.003 217.035 315.047 217.080 315.103 217.080 H 318.543 C 318.598 217.080 318.643 217.035 318.643 216.980 V 213.860 V 111.860 V 108.740 C 318.643 108.685 318.598 108.640 318.543 108.640 H 315.103 C 315.047 108.640 315.003 108.685 315.003 108.740 V 111.760 C 315.003 111.860 315.103 111.760 315.003 111.760 H 312.083 C 311.983 111.760 312.083 111.860 312.083 111.760 V 108.740 C 312.083 108.685 312.038 108.640 311.983 108.640 H 308.543 H 305.423 C 305.367 108.640 305.323 108.685 305.323 108.740 V 111.860 V 116.060 C 305.323 116.115 305.367 116.160 305.423 116.160 H 308.443 C 308.543 116.160 308.443 116.060 308.443 116.160 V 122.200 C 308.443 122.300 308.543 122.200 308.443 122.200 H 305.423 C 305.367 122.200 305.323 122.245 305.323 122.300 V 128.540 C 305.323 128.595 305.367 128.640 305.423 128.640 H 308.443 C 308.543 128.640 308.443 128.540 308.443 128.640 V 134.680 C 308.443 134.780 308.543 134.680 308.443 134.680 H 305.423 C 305.367 134.680 305.323 134.725 305.323 134.780 V 141.020 C 305.323 141.075 305.367 141.120 305.423 141.120 H 308.443 C 308.543 141.120 308.443 141.020 308.443 141.120 V 147.160 C 308.443 147.260 308.543 147.160 308.443 147.160 H 305.423 C 305.367 147.160 305.323 147.205 305.323 147.260 V 153.500 C 305.323 153.555 305.367 153.600 305.423 153.600 H 308.443 C 308.543 153.600 308.443 153.500 308.443 153.600 V 159.640 C 308.443 159.740 308.543 159.640 308.443 159.640 H 305.423 C 305.367 159.640 305.323 159.685 305.323 159.740 V 165.980 C 305.323 166.035 305.367 166.080 305.423 166.080 H 308.443 C 308.543 166.080 308.443 165.980 308.443 166.080 V 172.120 C 308.443 172.220 308.543 172.120 308.443 172.120 H 305.423 C 305.367 172.120 305.323 172.165 305.323 172.220 V 178.460 C 305.323 178.515 305.367 178.560 305.423 178.560 H 308.443 C 308.543 178.560 308.443 178.460 308.443 178.560 V 184.600 C 308.443 184.700 308.543 184.600 308.443 184.600 H 305.423 C 305.367 184.600 305.323 184.645 305.323 184.700 V 190.940 C 305.323 190.995 305.367 191.040 305.423 191.040 H 308.443 C 308.543 191.040 308.443 190.940 308.443 191.040 V 197.080 C 308.443 197.180 308.543 197.080 308.443 197.080 H 305.423 C 305.367 197.080 305.323 197.125 305.323 197.180 V 203.420 C 305.323 203.475 305.367 203.520 305.423 203.520 H 308.443 C 308.543 203.520 308.443 203.420 308.443 203.520 V 209.560 C 308.443 209.660 308.543 209.560 308.443 209.560 H 305.423 C 305.367 209.560 305.323 209.605 305.323 209.660 V 213.860 V 216.980 C 305.323 217.035 305.367 217.080 305.423 217.080 H 308.543" stroke="rgb(0,0,0)" stroke-width="0.20" />
</g>
<g id="p-4" style="fill:none;stroke-linecap:round;stroke-linejoin:round;">
  <text alignment-baseline="hanging" font-size="4px" style="font-family: sans-serif ; font-weight: normal; font-style: normal; fill: rgb(255,0,0)" text-anchor="middle" transform="matrix( 1.000 0.000 0.000 1.000 326.863 163.520 )" /><path d="M 320.303 217.080 C 322.623 217.080 324.903 216.469 326.913 215.309 C 328.922 214.149 330.591 212.480 331.751 210.470 C 332.912 208.460 333.523 206.181 333.523 203.860 V 194.740 C 333.523 194.685 333.478 194.640 333.423 194.640 H 330.403 C 330.303 194.640 330.403 194.740 330.403 194.640 V 188.600 C 330.403 188.500 330.303 188.600 330.403 188.600 H 333.423 C 333.478 188.600 333.523 188.555 333.523 188.500 V 182.260 C 333.523 182.205 333.478 182.160 333.423 182.160 H 330.403 C 330.303 182.160 330.403 182.260 330.403 182.160 V 176.120 C 330.403 176.020 330.303 176.120 330.403 176.120 H 333.423 C 333.478 176.120 333.523 176.075 333.523 176.020 V 169.780 C 333.523 169.725 333.478 169.680 333.423 169.680 H 330.403 C 330.303 169.680 330.403 169.780 330.403 169.680 V 163.640 C 330.403 163.540 330.303 163.640 330.403 163.640 H 333.423 C 333.478 163.640 333.523 163.595 333.523 163.540 V 157.300 C 333.523 157.245 333.478 157.200 333.423 157.200 H 330.403 C 330.303 157.200 330.403 157.300 330.403 157.200 V 151.160 C 330.403 151.060 330.303 151.160 330.403 151.160 H 333.423 C 333.478 151.160 333.523 151.115 333.523 151.060 V 144.820 C 333.523 144.765 333.478 144.720 333.423 144.720 H 330.403 C 330.303 144.720 330.403 144.820 330.403 144.720 V 138.680 C 330.403 138.580 330.303 138.680 330.403 138.680 H 333.423 C 333.478 138.680 333.523 138.635 333.523 138.580 V 132.340 C 333.523 132.285 333.478 132.240 333.423 132.240 H 330.403 C 330.303 132.240 330.403 132.340 330.403 132.240 V 126.200 C 330.403 126.100 330.303 126.200 330.403 126.200 H 333.423 C 333.478 126.200 333.523 126.155 333.523 126.100 V 116.980 C 333.523 116.925 333.478 116.880 333.423 116.880 H 330.303 H 326.963 C 326.863 116.880 326.963 116.980 326.963 116.880 V 113.860 C 326.963 113.805 326.918 113.760 326.863 113.760 H 323.743 C 323.687 113.760 323.643 113.805 323.643 113.860 V 116.880 C 323.643 116.980 323.743 116.880 323.643 116.880 H 320.303 C 320.247 116.880 320.203 116.925 320.203 116.980 V 216.980 C 320.203 217.035 320.247 217.080 320.303 217.080" stroke="rgb(0,0,0)" stroke-width="0.20" />
</g>
<g id="p-5" style="fill:none;stroke-linecap:round;stroke-linejoin:round;">
  <text alignment-baseline="hanging" font-size="4px" style="font-family: sans-serif ; font-weight: normal; font-style: normal; fill: rgb(255,0,0)" text-anchor="middle" transform="matrix( 1.000 0.000 0.000 1.000 341.743 163.520 )" /><path d="M 348.303 217.080 C 345.982 217.080 343.702 216.469 341.693 215.309 C 339.683 214.149 338.014 212.480 336.854 210.470 C 335.693 208.460 335.083 206.181 335.083 203.860 V 194.740 C 335.083 194.685 335.127 194.640 335.183 194.640 H 338.203 C 338.303 194.640 338.203 194.740 338.203 194.640 V 188.600 C 338.203 188.500 338.303 188.600 338.203 188.600 H 335.183 C 335.127 188.600 335.083 188.555 335.083 188.500 V 182.260 C 335.083 182.205 335.127 182.160 335.183 182.160 H 338.203 C 338.303 182.160 338.203 182.260 338.203 182.160 V 176.120 C 338.203 176.020 338.303 176.120 338.203 176.120 H 335.183 C 335.127 176.120 335.083 176.075 335.083 176.020 V 169.780 C 335.083 169.725 335.127 169.680 335.183 169.680 H 338.203 C 338.303 169.680 338.203 169.780 338.203 169.680 V 163.640 C 338.203 163.540 338.303 163.640 338.203 163.640 H 335.183 C 335.127 163.640 335.083 163.595 335.083 163.540 V 157.300 C 335.083 157.245 335.127 157.200 335.183 157.200 H 338.203 C 338.303 157.200 338.203 157.300 338.203 157.200 V 151.160 C 338.203 151.060 338.303 151.160 338.203 151.160 H 335.183 C 335.127 151.160 335.083 151.115 335.083 151.060 V 144.820 C 335.083 144.765 335.127 144.720 335.183 144.720 H 338.203 C 338.303 144.720 338.203 144.820 338.203 144.720 V 138.680 C 338.203 138.580 338.303 138.680 338.203 138.680 H 335.183 C 335.127 138.680 335.083 138.635 335.083 138.580 V 132.340 C 335.083 132.285 335.127 132.240 335.183 132.240 H 338.203 C 338.303 132.240 338.203 132.340 338.203 132.240 V 126.200 C 338.203 126.100 338.303 126.200 338.203 126.200 H 335.183 C 335.127 126.200 335.083 126.155 335.083 126.100 V 116.980 C 335.083 116.925 335.127 116.880 335.183 116.880 H 338.303 H 341.643 C 341.743 116.880 341.643 116.980 341.643 116.880 V 113.860 C 341.643 113.805 341.687 113.760 341.743 113.760 H 344.863 C 344.918 113.760 344.963 113.805 344.963 113.860 V 116.880 C 344.963 116.980 344.863 116.880 344.963 116.880 H 348.303 C 348.358 116.880 348.403 116.925 348.403 116.980 V 216.980 C 348.403 217.035 348.358 217.080 348.303 217.080" stroke="rgb(0,0,0)" stroke-width="0.20" />
</g>
<g id="p-6" style="fill:none;stroke-linecap:round;stroke-linejoin:round;">
  <text alignment-baseline="hanging" font-size="4px" style="font-family: sans-serif ; font-weight: normal; font-style: normal; fill: rgb(255,0,0)" text-anchor="middle" transform="matrix( 1.000 0.000 0.000 1.000 60.100 56.640 )" /><path d="M 13.220 103.960 H 19.440 C 19.540 103.960 19.440 103.860 19.440 103.960 V 106.980 C 19.440 107.035 19.485 107.080 19.540 107.080 H 25.780 C 25.835 107.080 25.880 107.035 25.880 106.980 V 103.960 C 25.880 103.860 25.780 103.960 25.880 103.960 H 31.920 C 32.020 103.960 31.920 103.860 31.920 103.960 V 106.980 C 31.920 107.035 31.965 107.080 32.020 107.080 H 38.260 C 38.315 107.080 38.360 107.035 38.360 106.980 V 103.960 C 38.360 103.860 38.260 103.960 38.360 103.960 H 44.400 C 44.500 103.960 44.400 103.860 44.400 103.960 V 106.980 C 44.400 107.035 44.445 107.080 44.500 107.080 H 50.740 C 50.795 107.080 50.840 107.035 50.840 106.980 V 103.960 C 50.840 103.860 50.740 103.960 50.840 103.960 H 56.880 C 56.980 103.960 56.880 103.860 56.880 103.960 V 106.980 C 56.880 107.035 56.925 107.080 56.980 107.080 H 63.220 C 63.275 107.080 63.320 107.035 63.320 106.980 V 103.960 C 63.320 103.860 63.220 103.960 63.320 103.960 H 69.360 C 69.460 103.960 69.360 103.860 69.360 103.960 V 106.980 C 69.360 107.035 69.405 107.080 69.460 107.080 H 75.700 C 75.755 107.080 75.800 107.035 75.800 106.980 V 103.960 C 75.800 103.860 75.700 103.960 75.800 103.960 H 81.840 C 81.940 103.960 81.840 103.860 81.840 103.960 V 106.980 C 81.840 107.035 81.885 107.080 81.940 107.080 H 88.180 C 88.235 107.080 88.280 107.035 88.280 106.980 V 103.960 C 88.280 103.860 88.180 103.960 88.280 103.960 H 94.320 C 94.420 103.960 94.320 103.860 94.320 103.960 V 106.980 C 94.320 107.035 94.365 107.080 94.420 107.080 H 100.660 C 100.715 107.080 100.760 107.035 100.760 106.980 V 103.960 C 100.760 103.860 100.660 103.960 100.760 103.960 H 106.980 C 107.035 103.960 107.080 103.915 107.080 103.860 V 96.400 C 107.080 96.300 106.980 96.400 107.080 96.400 H 110.100 C 110.155 96.400 110.200 96.355 110.200 96.300 V 90.060 C 110.200 90.005 110.155 89.960 110.100 89.960 H 107.080 C 106.980 89.960 107.080 90.060 107.080 89.960 V 83.920 C 107.080 83.820 106.980 83.920 107.080 83.920 H 110.100 C 110.155 83.920 110.200 83.875 110.200 83.820 V 77.580 C 110.200 77.525 110.155 77.480 110.100 77.480 H 107.080 C 106.980 77.480 107.080 77.580 107.080 77.480 V 71.440 C 107.080 71.340 106.980 71.440 107.080 71.440 H 110.100 C 110.155 71.440 110.200 71.395 110.200 71.340 V 65.100 C 110.200 65.045 110.155 65.000 110.100 65.000 H 107.080 C 106.980 65.000 107.080 65.100 107.080 65.000 V 58.960 C 107.080 58.860 106.980 58.960 107.080 58.960 H 110.100 C 110.155 58.960 110.200 58.915 110.200 58.860 V 52.620 C 110.200 52.565 110.155 52.520 110.100 52.520 H 107.080 C 106.980 52.520 107.080 52.620 107.080 52.520 V 46.480 C 107.080 46.380 106.980 46.480 107.080 46.480 H 110.100 C 110.155 46.480 110.200 46.435 110.200 46.380 V 40.140 C 110.200 40.085 110.155 40.040 110.100 40.040 H 107.080 C 106.980 40.040 107.080 40.140 107.080 40.040 V 34.000 C 107.080 33.900 106.980 34.000 107.080 34.000 H 110.100 C 110.155 34.000 110.200 33.955 110.200 33.900 V 27.660 C 110.200 27.605 110.155 27.560 110.100 27.560 H 107.080 C 106.980 27.560 107.080 27.660 107.080 27.560 V 20.100 C 107.080 18.327 106.613 16.585 105.727 15.050 C 104.840 13.515 103.565 12.240 102.030 11.353 C 100.495 10.467 98.753 10.000 96.980 10.000 H 13.220 C 13.165 10.000 13.120 10.045 13.120 10.100 V 16.320 C 13.120 16.420 13.220 16.320 13.120 16.320 H 10.100 C 10.045 16.320 10.000 16.365 10.000 16.420 V 22.660 C 10.000 22.715 10.045 22.760 10.100 22.760 H 13.120 C 13.220 22.760 13.120 22.660 13.120 22.760 V 28.800 C 13.120 28.900 13.220 28.800 13.120 28.800 H 10.100 C 10.045 28.800 10.000 28.845 10.000 28.900 V 35.140 C 10.000 35.195 10.045 35.240 10.100 35.240 H 13.120 C 13.220 35.240 13.120 35.140 13.120 35.240 V 41.280 C 13.120 41.380 13.220 41.280 13.120 41.280 H 10.100 C 10.045 41.280 10.000 41.325 10.000 41.380 V 47.620 C 10.000 47.675 10.045 47.720 10.100 47.720 H 13.120 C 13.220 47.720 13.120 47.620 13.120 47.720 V 53.760 C 13.120 53.860 13.220 53.760 13.120 53.760 H 10.100 C 10.045 53.760 10.000 53.805 10.000 53.860 V 60.100 C 10.000 60.155 10.045 60.200 10.100 60.200 H 13.120 C 13.220 60.200 13.120 60.100 13.120 60.200 V 66.240 C 13.120 66.340 13.220 66.240 13.120 66.240 H 10.100 C 10.045 66.240 10.000 66.285 10.000 66.340 V 72.580 C 10.000 72.635 10.045 72.680 10.100 72.680 H 13.120 C 13.220 72.680 13.120 72.580 13.120 72.680 V 78.720 C 13.120 78.820 13.220 78.720 13.120 78.720 H 10.100 C 10.045 78.720 10.000 78.765 10.000 78.820 V 85.060 C 10.000 85.115 10.045 85.160 10.100 85.160 H 13.120 C 13.220 85.160 13.120 85.060 13.120 85.160 V 91.200 C 13.120 91.300 13.220 91.200 13.120 91.200 H 10.100 C 10.045 91.200 10.000 91.245 10.000 91.300 V 97.540 C 10.000 97.595 10.045 97.640 10.100 97.640 H 13.120 C 13.220 97.640 13.120 97.540 13.120 97.640 V 103.860 C 13.120 103.915 13.165 103.960 13.220 103.960" stroke="rgb(0,0,0)" stroke-width="0.20" />
</g>
<g id="p-7" style="fill:none;stroke-linecap:round;stroke-linejoin:round;">
  <text alignment-baseline="hanging" font-size="4px" style="font-family: sans-serif ; font-weight: normal; font-style: normal; fill: rgb(255,0,0)" text-anchor="middle" transform="matrix( 1.000 0.000 0.000 1.000 161.860 56.640 )" /><path d="M 208.740 103.960 H 202.520 C 202.420 103.960 202.520 103.860 202.520 103.960 V 106.980 C 202.520 107.035 202.475 107.080 202.420 107.080 H 196.180 C 196.125 107.080 196.080 107.035 196.080 106.980 V 103.960 C 196.080 103.860 196.180 103.960 196.080 103.960 H 190.040 C 189.940 103.960 190.040 103.860 190.040 103.960 V 106.980 C 190.040 107.035 189.995 107.080 189.940 107.080 H 183.700 C 183.645 107.080 183.600 107.035 183.600 106.980 V 103.960 C 183.600 103.860 183.700 103.960 183.600 103.960 H 177.560 C 177.460 103.960 177.560 103.860 177.560 103.960 V 106.980 C 177.560 107.035 177.515 107.080 177.460 107.080 H 171.220 C 171.165 107.080 171.120 107.035 171.120 106.980 V 103.960 C 171.120 103.860 171.220 103.960 171.120 103.960 H 165.080 C 164.980 103.960 165.080 103.860 165.080 103.960 V 106.980 C 165.080 107.035 165.035 107.080 164.980 107.080 H 158.740 C 158.685 107.080 158.640 107.035 158.640 106.980 V 103.960 C 158.640 103.860 158.740 103.960 158.640 103.960 H 152.600 C 152.500 103.960 152.600 103.860 152.600 103.960 V 106.980 C 152.600 107.035 152.555 107.080 152.500 107.080 H 146.260 C 146.205 107.080 146.160 107.035 146.160 106.980 V 103.960 C 146.160 103.860 146.260 103.960 146.160 103.960 H 140.120 C 140.020 103.960 140.120 103.860 140.120 103.960 V 106.980 C 140.120 107.035 140.075 107.080 140.020 107.080 H 133.780 C 133.725 107.080 133.680 107.035 133.680 106.980 V 103.960 C 133.680 103.860 133.780 103.960 133.680 103.960 H 127.640 C 127.540 103.960 127.640 103.860 127.640 103.960 V 106.980 C 127.640 107.035 127.595 107.080 127.540 107.080 H 121.300 C 121.245 107.080 121.200 107.035 121.200 106.980 V 103.960 C 121.200 103.860 121.300 103.960 121.200 103.960 H 114.980 C 114.925 103.960 114.880 103.915 114.880 103.860 V 96.400 C 114.880 96.300 114.980 96.400 114.880 96.400 H 111.860 C 111.805 96.400 111.760 96.355 111.760 96.300 V 90.060 C 111.760 90.005 111.805 89.960 111.860 89.960 H 114.880 C 114.980 89.960 114.880 90.060 114.880 89.960 V 83.920 C 114.880 83.820 114.980 83.920 114.880 83.920 H 111.860 C 111.805 83.920 111.760 83.875 111.760 83.820 V 77.580 C 111.760 77.525 111.805 77.480 111.860 77.480 H 114.880 C 114.980 77.480 114.880 77.580 114.880 77.480 V 71.440 C 114.880 71.340 114.980 71.440 114.880 71.440 H 111.860 C 111.805 71.440 111.760 71.395 111.760 71.340 V 65.100 C 111.760 65.045 111.805 65.000 111.860 65.000 H 114.880 C 114.980 65.000 114.880 65.100 114.880 65.000 V 58.960 C 114.880 58.860 114.980 58.960 114.880 58.960 H 111.860 C 111.805 58.960 111.760 58.915 111.760 58.860 V 52.620 C 111.760 52.565 111.805 52.520 111.860 52.520 H 114.880 C 114.980 52.520 114.880 52.620 114.880 52.520 V 46.480 C 114.880 46.380 114.980 46.480 114.880 46.480 H 111.860 C 111.805 46.480 111.760 46.435 111.760 46.380 V 40.140 C 111.760 40.085 111.805 40.040 111.860 40.040 H 114.880 C 114.980 40.040 114.880 40.140 114.880 40.040 V 34.000 C 114.880 33.900 114.980 34.000 114.880 34.000 H 111.860 C 111.805 34.000 111.760 33.955 111.760 33.900 V 27.660 C 111.760 27.605 111.805 27.560 111.860 27.560 H 114.880 C 114.980 27.560 114.880 27.660 114.880 27.560 V 20.100 C 114.880 18.327 115.347 16.585 116.233 15.050 C 117.120 13.515 118.395 12.240 119.930 11.353 C 121.465 10.467 123.207 10.000 124.980 10.000 H 208.740 C 208.795 10.000 208.840 10.045 208.840 10.100 V 16.320 C 208.840 16.420 208.740 16.320 208.840 16.320 H 211.860 C 211.915 16.320 211.960 16.365 211.960 16.420 V 22.660 C 211.960 22.715 211.915 22.760 211.860 22.760 H 208.840 C 208.740 22.760 208.840 22.660 208.840 22.760 V 28.800 C 208.840 28.900 208.740 28.800 208.840 28.800 H 211.860 C 211.915 28.800 211.960 28.845 211.960 28.900 V 35.140 C 211.960 35.195 211.915 35.240 211.860 35.240 H 208.840 C 208.740 35.240 208.840 35.140 208.840 35.240 V 41.280 C 208.840 41.380 208.740 41.280 208.840 41.280 H 211.860 C 211.915 41.280 211.960 41.325 211.960 41.380 V 47.620 C 211.960 47.675 211.915 47.720 211.860 47.720 H 208.840 C 208.740 47.720 208.840 47.620 208.840 47.720 V 53.760 C 208.840 53.860 208.740 53.760 208.840 53.760 H 211.860 C 211.915 53.760 211.960 53.805 211.960 53.860 V 60.100 C 211.960 60.155 211.915 60.200 211.860 60.200 H 208.840 C 208.740 60.200 208.840 60.100 208.840 60.200 V 66.240 C 208.840 66.340 208.740 66.240 208.840 66.240 H 211.860 C 211.915 66.240 211.960 66.285 211.960 66.340 V 72.580 C 211.960 72.635 211.915 72.680 211.860 72.680 H 208.840 C 208.740 72.680 208.840 72.580 208.840 72.680 V 78.720 C 208.840 78.820 208.740 78.720 208.840 78.720 H 211.860 C 211.915 78.720 211.960 78.765 211.960 78.820 V 85.060 C 211.960 85.115 211.915 85.160 211.860 85.160 H 208.840 C 208.740 85.160 208.840 85.060 208.840 85.160 V 91.200 C 208.840 91.300 208.740 91.200 208.840 91.200 H 211.860 C 211.915 91.200 211.960 91.245 211.960 91.300 V 97.540 C 211.960 97.595 211.915 97.640 211.860 97.640 H 208.840 C 208.740 97.640 208.840 97.540 208.840 97.640 V 103.860 C 208.840 103.915 208.795 103.960 208.740 103.960" stroke="rgb(0,0,0)" stroke-width="0.20" />
</g>
<g id="p-8" style="fill:none;stroke-linecap:round;stroke-linejoin:round;">
  <text alignment-baseline="hanging" font-size="4px" style="font-family: sans-serif ; font-weight: normal; font-style: normal; fill: rgb(255,0,0)" text-anchor="middle" transform="matrix( 1.000 0.000 0.000 1.000 263.620 56.640 )" /><path d="M 216.740 103.960 H 222.960 C 223.060 103.960 222.960 103.860 222.960 103.960 V 106.980 C 222.960 107.035 223.005 107.080 223.060 107.080 H 229.300 C 229.355 107.080 229.400 107.035 229.400 106.980 V 103.960 C 229.400 103.860 229.300 103.960 229.400 103.960 H 235.440 C 235.540 103.960 235.440 103.860 235.440 103.960 V 106.980 C 235.440 107.035 235.485 107.080 235.540 107.080 H 241.780 C 241.835 107.080 241.880 107.035 241.880 106.980 V 103.960 C 241.880 103.860 241.780 103.960 241.880 103.960 H 247.920 C 248.020 103.960 247.920 103.860 247.920 103.960 V 106.980 C 247.920 107.035 247.965 107.080 248.020 107.080 H 254.260 C 254.315 107.080 254.360 107.035 254.360 106.980 V 103.960 C 254.360 103.860 254.260 103.960 254.360 103.960 H 260.400 C 260.500 103.960 260.400 103.860 260.400 103.960 V 106.980 C 260.400 107.035 260.445 107.080 260.500 107.080 H 266.740 C 266.795 107.080 266.840 107.035 266.840 106.980 V 103.960 C 266.840 103.860 266.740 103.960 266.840 103.960 H 272.880 C 272.980 103.960 272.880 103.860 272.880 103.960 V 106.980 C 272.880 107.035 272.925 107.080 272.980 107.080 H 279.220 C 279.275 107.080 279.320 107.035 279.320 106.980 V 103.960 C 279.320 103.860 279.220 103.960 279.320 103.960 H 285.360 C 285.460 103.960 285.360 103.860 285.360 103.960 V 106.980 C 285.360 107.035 285.405 107.080 285.460 107.080 H 291.700 C 291.755 107.080 291.800 107.035 291.800 106.980 V 103.960 C 291.800 103.860 291.700 103.960 291.800 103.960 H 297.840 C 297.940 103.960 297.840 103.860 297.840 103.960 V 106.980 C 297.840 107.035 297.885 107.080 297.940 107.080 H 304.180 C 304.235 107.080 304.280 107.035 304.280 106.980 V 103.960 C 304.280 103.860 304.180 103.960 304.280 103.960 H 310.500 H 313.620 C 313.675 103.960 313.720 103.915 313.720 103.860 V 97.540 C 313.720 97.485 313.675 97.440 313.620 97.440 H 310.600 C 310.500 97.440 310.600 97.540 310.600 97.440 V 91.400 C 310.600 91.300 310.500 91.400 310.600 91.400 H 313.620 C 313.675 91.400 313.720 91.355 313.720 91.300 V 85.060 C 313.720 85.005 313.675 84.960 313.620 84.960 H 310.600 C 310.500 84.960 310.600 85.060 310.600 84.960 V 78.920 C 310.600 78.820 310.500 78.920 310.600 78.920 H 313.620 C 313.675 78.920 313.720 78.875 313.720 78.820 V 72.580 C 313.720 72.525 313.675 72.480 313.620 72.480 H 310.600 C 310.500 72.480 310.600 72.580 310.600 72.480 V 66.440 C 310.600 66.340 310.500 66.440 310.600 66.440 H 313.620 C 313.675 66.440 313.720 66.395 313.720 66.340 V 60.100 C 313.720 60.045 313.675 60.000 313.620 60.000 H 310.600 C 310.500 60.000 310.600 60.100 310.600 60.000 V 53.960 C 310.600 53.860 310.500 53.960 310.600 53.960 H 313.620 C 313.675 53.960 313.720 53.915 313.720 53.860 V 47.620 C 313.720 47.565 313.675 47.520 313.620 47.520 H 310.600 C 310.500 47.520 310.600 47.620 310.600 47.520 V 41.480 C 310.600 41.380 310.500 41.480 310.600 41.480 H 313.620 C 313.675 41.480 313.720 41.435 313.720 41.380 V 35.140 C 313.720 35.085 313.675 35.040 313.620 35.040 H 310.600 C 310.500 35.040 310.600 35.140 310.600 35.040 V 29.000 C 310.600 28.900 310.500 29.000 310.600 29.000 H 313.620 C 313.675 29.000 313.720 28.955 313.720 28.900 V 22.660 C 313.720 22.605 313.675 22.560 313.620 22.560 H 310.600 C 310.500 22.560 310.600 22.660 310.600 22.560 V 16.520 C 310.600 16.420 310.500 16.520 310.600 16.520 H 313.620 C 313.675 16.520 313.720 16.475 313.720 16.420 V 10.100 C 313.720 10.045 313.675 10.000 313.620 10.000 H 310.500 H 216.740 H 213.620 C 213.565 10.000 213.520 10.045 213.520 10.100 V 16.420 C 213.520 16.475 213.565 16.520 213.620 16.520 H 216.640 C 216.740 16.520 216.640 16.420 216.640 16.520 V 22.560 C 216.640 22.660 216.740 22.560 216.640 22.560 H 213.620 C 213.565 22.560 213.520 22.605 213.520 22.660 V 28.900 C 213.520 28.955 213.565 29.000 213.620 29.000 H 216.640 C 216.740 29.000 216.640 28.900 216.640 29.000 V 35.040 C 216.640 35.140 216.740 35.040 216.640 35.040 H 213.620 C 213.565 35.040 213.520 35.085 213.520 35.140 V 41.380 C 213.520 41.435 213.565 41.480 213.620 41.480 H 216.640 C 216.740 41.480 216.640 41.380 216.640 41.480 V 47.520 C 216.640 47.620 216.740 47.520 216.640 47.520 H 213.620 C 213.565 47.520 213.520 47.565 213.520 47.620 V 53.860 C 213.520 53.915 213.565 53.960 213.620 53.960 H 216.640 C 216.740 53.960 216.640 53.860 216.640 53.960 V 60.000 C 216.640 60.100 216.740 60.000 216.640 60.000 H 213.620 C 213.565 60.000 213.520 60.045 213.520 60.100 V 66.340 C 213.520 66.395 213.565 66.440 213.620 66.440 H 216.640 C 216.740 66.440 216.640 66.340 216.640 66.440 V 72.480 C 216.640 72.580 216.740 72.480 216.640 72.480 H 213.620 C 213.565 72.480 213.520 72.525 213.520 72.580 V 78.820 C 213.520 78.875 213.565 78.920 213.620 78.920 H 216.640 C 216.740 78.920 216.640 78.820 216.640 78.920 V 84.960 C 216.640 85.060 216.740 84.960 216.640 84.960 H 213.620 C 213.565 84.960 213.520 85.005 213.520 85.060 V 91.300 C 213.520 91.355 213.565 91.400 213.620 91.400 H 216.640 C 216.740 91.400 216.640 91.300 216.640 91.400 V 97.440 C 216.640 97.540 216.740 97.440 216.640 97.440 H 213.620 C 213.565 97.440 213.520 97.485 213.520 97.540 V 103.860 C 213.520 103.915 213.565 103.960 213.620 103.960 H 216.740" stroke="rgb(0,0,0)" stroke-width="0.20" />
</g>
</svg>