<svg xmlns="http://www.w3.org/2000/svg" xmlns:xlink="http://www.w3.org/1999/xlink" viewBox="0 0 402.23 202.5">
  <title>case_artAsset 1</title>
  <g id="Layer_2" data-name="Layer 2">
    <g id="Layer_3" data-name="Layer 3">
      <image width="3840" height="2160" transform="scale(0.09)" xlink:href="../illustratorProcess/spider_grafiti.png"/>
      <g>
        <path d="M249.7,75.93a69.86,69.86,0,0,1,2.52,7.54,10.52,10.52,0,0,0,.95-3.26l8.26-8.56a13,13,0,0,1-2.8,6.5,46.15,46.15,0,0,0-3.94,6.24l.13-.09c1.37-1.42,3.69-2.33,7-2.72a66.52,66.52,0,0,0,8.1-1.37A11.72,11.72,0,0,1,270,86q-.64,2.34,1.83,9.52c.35,1,.68,2.13,1,3.26s.64,2.27.95,3.43L278,97.77c-.12,1-.27,2-.46,3s-.32,2-.41,2.84c-.06.44-.12,2-.2,4.7l-.1,4-8.26,8.56a50.36,50.36,0,0,1-2.54-8.15,88.16,88.16,0,0,0-2.46-8.67q-2.52-7.17-1.85-9.52a11.67,11.67,0,0,0-.1-5.77,35.12,35.12,0,0,1-3.65.67c-1.39.19-2.79.41-4.18.67q1.31,6.21,2.18,11.93t1.21,8.24v0l-8,8c-.09.08-.63-.6-1.63-2a18,18,0,0,0-2.37-3,2.27,2.27,0,0,1-.43-.63c-.21-.36-.35-.56-.44-.59l3.48-3.52q-1.31-8.09-3.61-17.4T238.83,79.3l7.95-8A11.76,11.76,0,0,1,249.7,75.93Zm-7.61,15c0,.35-.25.53-.65.53s-.55-.25-.52-.66a2.59,2.59,0,0,0-.39-1.13.6.6,0,0,1,1-.65A4.08,4.08,0,0,1,242.09,90.9Zm1.39-1.45A11.85,11.85,0,0,1,244,93c0,.4-.19.6-.56.6a.53.53,0,0,1-.61-.6,11.07,11.07,0,0,0-.48-3.18,30.77,30.77,0,0,0-1.39-3,.52.52,0,0,1,.17-.83c.35-.2.61-.14.79.17A34.25,34.25,0,0,1,243.48,89.45Zm34,28.66a20.55,20.55,0,0,1,.39,2.08l-8,8a17.7,17.7,0,0,0-.39-2.11,18.1,18.1,0,0,1-.43-3.24l8-8A18.75,18.75,0,0,0,277.51,118.11Zm-5.85-33.62c0,.4,0,.74,0,1a16.9,16.9,0,0,0,0,2.73,16,16,0,0,0,.76,2.35c.12.35.26.75.44,1.19s.37,1,.61,1.59c.08.41-.05.65-.39.74s-.66.06-.74-.35q-1.69-4.74-1.83-5.19a45.49,45.49,0,0,1,0-5.45c0-.38.2-.57.61-.57a.5.5,0,0,1,.57.57C271.69,83.65,271.68,84.1,271.66,84.49Zm2.68,11.67.17,1a.53.53,0,0,1-.61.6c-.38,0-.56-.2-.56-.6a10.43,10.43,0,0,0-.44-1.53.52.52,0,0,1,.26-.78c.29-.17.57-.08.83.26Z"/>
        <path d="M278.2,86.38,286.5,78a6,6,0,0,1,3.26-1q12.09-.85,18.34,1.5t8.22,6.28a10.67,10.67,0,0,1,.39,8.5,20.84,20.84,0,0,1-5.09,8.1l-8.3,8.3a22,22,0,0,1-7.89,5.09,12.18,12.18,0,0,1-8.75.13q-13.35-4.7-14.15-10.15a10.15,10.15,0,0,1,2.81-9.1L280,91Q276.94,87.68,278.2,86.38Zm2.59,5.76a.34.34,0,0,1-.15,0q-.92,3.39,1.89,7.26T295,106.68q5.61,2,11.95-1.61a13.36,13.36,0,0,0,.72-12.51q-2.76-6.34-16.76-7.26l5.39,5.06q2.66,2.51,2.52,4l-8.3,8.3c.09-1.19-1-2.77-3.26-4.76S282.9,94,281,92.08Zm21.64,4c.22.86.57,1.37,1.07,1.54l-8.3,8.3c-.53-.17-.89-.68-1.09-1.54a9.56,9.56,0,0,1-.31-2l8.3-8.3A8.63,8.63,0,0,0,302.43,96.14Zm7,13.47a21.1,21.1,0,0,1-4,3.72.58.58,0,0,1-.78-.39c-.11-.32,0-.57.39-.74a19,19,0,0,0,3.52-3.46,34.78,34.78,0,0,0,2.7-4.15c.08-.37.33-.49.74-.34a.56.56,0,0,1,.39.73A35.75,35.75,0,0,1,309.47,109.61Z"/>
        <path d="M309.58,77.15c.26.3,1,1.11,2.26,2.41a.51.51,0,0,1-.09.83c-.26.29-.53.27-.82,0a17.2,17.2,0,0,1-2.55-3.21c-.39-.75.42-1.57,2.42-2.43a.56.56,0,0,1,.74.39.54.54,0,0,1-.4.73C309.84,76.4,309.32,76.85,309.58,77.15ZM328.31,76q4.17,2.17,7.37,3.76a13,13,0,0,1,4.6,3.43c.94,1.24.81,3.13-.41,5.68a12.84,12.84,0,0,1-3,4.21l-.79.7c.35-.12,1.19-.33,2.53-.63a46.43,46.43,0,0,1,6.08-.81q8.18-.6,10.34,3.13t-3.69,8.95l-.05.09-8.73,7.74a39.53,39.53,0,0,1-3.48,2.65q-5.09,3.39-5.8,3.19c-.48-.13-.95-.67-1.41-1.63l-3.39,3a.23.23,0,0,1-.3,0l.39-.35a26.18,26.18,0,0,0-1.61-5.86c-.52-.09-1.28-.19-2.26-.31l1.61-1.39q-2.44-6.44-5.91-14.41t-5-10.66l3.52-3.13a29.73,29.73,0,0,1-7.13-6.13l8.78-7.82A25.63,25.63,0,0,0,328.31,76ZM320.23,99a.5.5,0,0,1-.18.69c-.32.29-.59.25-.82-.13a1.37,1.37,0,0,1-.13-.56c0-.41.17-.61.52-.61s.61.19.61.56Zm2.21,4.93s.34,1,1,2.93c.06.44-.1.67-.48.7s-.66-.1-.69-.48c-.64-1.88-1-2.82-1-2.8s-.32-.89-.95-2.72c-.06-.4.1-.64.47-.69s.58,0,.7.43C322.14,103,322.44,103.91,322.44,103.92Zm9.17-12.6a8.11,8.11,0,0,0-2.82-2.72c.92,2.09,1.9,4.32,2.91,6.69A4.87,4.87,0,0,0,331.61,91.32Zm1.78,28.74q1-.44,2.31-1.08c.32-.18.59-.09.82.26a.52.52,0,0,1-.3.78,16.48,16.48,0,0,1-3.33,1.15c-1.08.25-1.67-.5-1.76-2.24a.55.55,0,0,1,.61-.56.54.54,0,0,1,.61.61C332.38,120,332.73,120.35,333.39,120.06Zm6.33-12.66a12.47,12.47,0,0,1,1.26,2.08,1.16,1.16,0,0,0,1.13.83,11.92,11.92,0,0,0,3.67-1.85q2.22-3.87-.54-6.32t-9.37-1.94l-1.13.11a7,7,0,0,1-1,.07q1,2.39,2,5.13Q338.82,106.16,339.72,107.4Z"/>
        <path d="M354.25,73c1.94.6,4.41,1.43,7.39,2.47a45.46,45.46,0,0,0,9.08,2.18,78.48,78.48,0,0,0,11,.82h10.88l-8,8-10.89,0a86.63,86.63,0,0,1-11-.81,23.44,23.44,0,0,1-3-.52q.57,2.31,1.09,5t1.26,5.82a4.46,4.46,0,0,0,.06.65c.05.26.1.55.16.87l5.52-5.52a71.22,71.22,0,0,0,9.77.41q5.22-.1,10-.11l-8,8c-2.69,0-5.52,0-8.47.09s-5.78,0-8.48-.18q.27,2.88.46,6.31a38.48,38.48,0,0,1,0,5.38l1.35-1.34a12.5,12.5,0,0,1,4.52-2.79,17.44,17.44,0,0,1,4.74-1.17,49.8,49.8,0,0,1,6.8.11,47.42,47.42,0,0,1,5.58.85,11.35,11.35,0,0,1,0-2.91l.09-.09,8-8a.69.69,0,0,0,.26-.17l-.3.3q-1,6.66,3.74,10.39c3.16,2.49,4.57,3.88,4.26,4.17l-8,8c-.09.11-.61.09-1.56-.09a90.07,90.07,0,0,1-12.82-3.22q-5.13-1.77-14-1.34a15.52,15.52,0,0,0-5.91,1.65l-4.95,5a1.46,1.46,0,0,1,.09-.21.67.67,0,0,0,0-.22q.53-2.35,0-8.67t-.91-8.11q-1.69-7.72-2.87-12.75a27.29,27.29,0,0,0-5-10.15c-1.13-.32-1.89-.5-2.26-.56l1-1a38.9,38.9,0,0,0-2.91-3.26l8-8A48.86,48.86,0,0,1,354.25,73Zm11,32,0,2.48a.61.61,0,1,1-1.21,0V105l-.26-2.44a.57.57,0,0,1,.48-.69q.6,0,.69.48Zm.33-31.27a1.73,1.73,0,0,0,.32.11h0a.55.55,0,0,1,.65.52c0,.41-.14.63-.52.66a2.81,2.81,0,0,1-1.09-.31c-.4-.09-.52-.33-.34-.74s.33-.48.73-.39A1.59,1.59,0,0,0,365.62,73.67ZM373,75.48c.89.2,1.63.34,2.24.43l.57.09a4.08,4.08,0,0,0,.61,0c.6.06,1.37.1,2.28.11s2.25,0,4,0c.37,0,.56.21.56.61a.5.5,0,0,1-.56.57c-4.32,0-6.72-.09-7.22-.18s-2.78-.56-6.86-1.43c-.41-.09-.52-.34-.35-.74s.33-.48.74-.39C370.8,75,372.12,75.27,373,75.48ZM394.49,79c.35,0,.95,0,1.79,0l-8,8-1.78,0a3.06,3.06,0,0,0-1.52.58l8-8A2.89,2.89,0,0,1,394.49,79Z"/>
      </g>
    </g>
  </g>
</svg>
