<svg xmlns="http://www.w3.org/2000/svg" viewBox="0 0 163.4 60.01">
  <title>grafiti_nameAsset 7</title>
  <g id="Layer_2" data-name="Layer 2">
    <g id="Layer_3" data-name="Layer 3">
      <g>
        <path d="M10.86,7.8a65.73,65.73,0,0,1,2.52,7.54,10.65,10.65,0,0,0,1-3.26L22.6,3.52A12.9,12.9,0,0,1,19.79,10a47,47,0,0,0-3.93,6.23l.13-.08q2-2.13,7-2.72a68.53,68.53,0,0,0,8.1-1.37,11.72,11.72,0,0,1,.13,5.74q-.64,2.34,1.83,9.51c.35,1.05.68,2.13,1,3.26s.63,2.28.95,3.44l4.22-4.39c-.12.95-.27,1.95-.46,3s-.32,2-.41,2.85c-.06.44-.12,2-.2,4.69L38,44.2l-8.25,8.56a49.39,49.39,0,0,1-2.54-8.15,88.16,88.16,0,0,0-2.46-8.67q-2.52-7.17-1.85-9.52a11.61,11.61,0,0,0-.11-5.78,34,34,0,0,1-3.65.68c-1.39.18-2.78.41-4.17.67q1.3,6.21,2.18,11.93t1.21,8.23v.05l-8,8c-.09.09-.63-.59-1.63-2A18,18,0,0,0,6.39,45.2,2.45,2.45,0,0,1,6,44.57c-.2-.37-.34-.56-.43-.59L9,40.46Q7.7,32.38,5.39,23.05T0,11.17L8,3.22A11.5,11.5,0,0,1,10.86,7.8ZM38.68,50a20,20,0,0,1,.39,2.08l-8,7.95a18.11,18.11,0,0,0-.39-2.1,17.34,17.34,0,0,1-.43-3.24l8-8A18.75,18.75,0,0,0,38.68,50ZM32.83,16.36c0,.39,0,.73,0,1a17,17,0,0,0,0,2.74,15.13,15.13,0,0,0,.76,2.35c.12.34.26.74.44,1.19s.37,1,.61,1.59c.08.4,0,.65-.4.74s-.65.05-.73-.35q-1.69-4.74-1.83-5.19a45.75,45.75,0,0,1,0-5.46c0-.37.2-.56.61-.56a.49.49,0,0,1,.56.56C32.85,15.51,32.85,16,32.83,16.36ZM35.5,28l.18,1a.54.54,0,0,1-.61.61c-.38,0-.57-.2-.57-.61a9.13,9.13,0,0,0-.43-1.52.51.51,0,0,1,.26-.78c.29-.17.57-.09.83.26Z"/>
        <path d="M39.37,18.25l8.3-8.34a6,6,0,0,1,3.26-1Q63,8.08,69.27,10.45t8.21,6.28a10.63,10.63,0,0,1,.4,8.5,21,21,0,0,1-5.09,8.1l-8.3,8.3a22,22,0,0,1-7.89,5.09,12.18,12.18,0,0,1-8.75.13Q34.5,42.16,33.7,36.7a10.16,10.16,0,0,1,2.8-9.1l4.65-4.7C39.13,20.67,38.53,19.12,39.37,18.25ZM42,24l-.15,0q-.91,3.39,1.89,7.26t12.45,7.26q5.6,2,11.95-1.61a13.38,13.38,0,0,0,.71-12.52q-2.76-6.34-16.75-7.25l5.39,5.06q2.65,2.49,2.52,4l-8.3,8.3q.13-1.78-3.26-4.76T42.15,24ZM63.6,28c.22.85.57,1.37,1.06,1.54l-8.3,8.3c-.52-.17-.88-.69-1.08-1.54a9,9,0,0,1-.31-2l8.3-8.3A8.71,8.71,0,0,0,63.6,28Zm7,13.47a21.1,21.1,0,0,1-4,3.72.58.58,0,0,1-.78-.4c-.11-.31,0-.56.39-.73a19.63,19.63,0,0,0,3.52-3.46,35.62,35.62,0,0,0,2.7-4.15c.08-.38.33-.49.74-.35a.57.57,0,0,1,.39.74A36.46,36.46,0,0,1,70.64,41.48Z"/>
        <path d="M70.75,9c.26.3,1,1.11,2.26,2.41a.5.5,0,0,1-.09.82c-.26.29-.54.28-.82,0A16.78,16.78,0,0,1,69.55,9C69.16,8.24,70,7.43,72,6.56A.56.56,0,0,1,72.7,7a.53.53,0,0,1-.39.74C71,8.27,70.49,8.71,70.75,9ZM89.48,7.91q4.17,2.17,7.36,3.76a13,13,0,0,1,4.61,3.43q1.41,1.84-.41,5.67A12.93,12.93,0,0,1,98,25l-.79.69q.53-.16,2.52-.63a48.86,48.86,0,0,1,6.09-.8q8.16-.62,10.34,3.13t-3.69,9l0,.09-8.73,7.73a37.68,37.68,0,0,1-3.48,2.65q-5.08,3.39-5.8,3.2c-.48-.13-1-.68-1.41-1.63l-3.39,3a.25.25,0,0,1-.31,0l.4-.35a26.34,26.34,0,0,0-1.61-5.87c-.52-.09-1.28-.19-2.26-.3l1.61-1.39Q85,37,81.53,29.05t-5-10.67L80,15.25a29.84,29.84,0,0,1-7.12-6.12L81.66,1.3A25.53,25.53,0,0,0,89.48,7.91ZM81.4,30.85a.51.51,0,0,1-.18.7c-.32.29-.59.25-.82-.13a1.38,1.38,0,0,1-.13-.57c0-.4.17-.6.52-.6s.61.18.61.56Zm2.21,4.94s.33,1,1,2.93c.06.43-.1.67-.48.7s-.66-.11-.69-.48c-.64-1.89-1-2.82-1-2.81s-.32-.89-1-2.71c-.06-.41.1-.64.47-.7a.54.54,0,0,1,.7.44C83.31,34.9,83.61,35.77,83.61,35.79Zm9.17-12.61A8.09,8.09,0,0,0,90,20.47c.92,2.08,1.89,4.32,2.91,6.69A4.89,4.89,0,0,0,92.78,23.18Zm1.78,28.75c.67-.29,1.44-.65,2.31-1.09.31-.17.59-.08.82.27a.53.53,0,0,1-.3.78A17.12,17.12,0,0,1,94.06,53c-1.08.25-1.67-.5-1.76-2.24a.54.54,0,0,1,.61-.56.53.53,0,0,1,.61.6C93.55,51.86,93.9,52.22,94.56,51.93Zm6.33-12.67a12.49,12.49,0,0,1,1.26,2.09,1.15,1.15,0,0,0,1.13.82c.5,0,1.73-.63,3.67-1.84,1.48-2.58,1.29-4.69-.55-6.33s-5-2.28-9.36-1.93l-1.13.11a8.86,8.86,0,0,1-1,.07q1,2.39,2,5.12Q100,38,100.89,39.26Z"/>
        <path d="M115.42,4.82c1.94.61,4.41,1.44,7.39,2.48a45.27,45.27,0,0,0,9.08,2.17,78.42,78.42,0,0,0,11,.83h10.89l-8,8c-3.82,0-7.45,0-10.88,0a84.73,84.73,0,0,1-11-.8,25.38,25.38,0,0,1-3-.52q.57,2.3,1.09,4.95c.35,1.77.76,3.71,1.26,5.83a4.46,4.46,0,0,0,.06.65q.08.39.15.87L129,23.73a73.06,73.06,0,0,0,9.78.41Q144,24,148.8,24l-8,8c-2.69,0-5.52,0-8.47.09s-5.78,0-8.48-.18q.27,2.86.46,6.3a38.62,38.62,0,0,1,0,5.39l1.35-1.35a12.62,12.62,0,0,1,4.52-2.78,17.47,17.47,0,0,1,4.73-1.17,48.18,48.18,0,0,1,6.8.11,47.28,47.28,0,0,1,5.59.85,11,11,0,0,1,0-2.92l.09-.08,8-8a1.3,1.3,0,0,0,.26-.17l-.3.3q-1,6.64,3.74,10.39T163.35,43l-8,8c-.09.12-.61.09-1.57-.08A90.78,90.78,0,0,1,141,47.67q-5.11-1.79-14-1.34A15.52,15.52,0,0,0,121.07,48l-4.95,5,.08-.22a.43.43,0,0,0,0-.21q.52-2.36,0-8.67a78.28,78.28,0,0,0-.92-8.11Q113.65,28,112.47,23a27.59,27.59,0,0,0-5-10.15c-1.13-.32-1.89-.51-2.26-.57l1-1A37.56,37.56,0,0,0,103.25,8l8-8A50.12,50.12,0,0,1,115.42,4.82Zm11,32,0,2.48a.61.61,0,0,1-1.21,0v-2.4L125,34.46a.57.57,0,0,1,.47-.69c.41,0,.64.13.7.47Zm.33-31.27.32.11h0a.55.55,0,0,1,.65.52c0,.41-.14.62-.52.65a2.77,2.77,0,0,1-1.09-.3c-.4-.09-.52-.33-.35-.74s.34-.48.74-.39A1.32,1.32,0,0,0,126.79,5.54Zm7.38,1.8c.89.21,1.63.35,2.24.44l.57.09c.2,0,.4,0,.6,0,.61.06,1.37.09,2.29.11l4,0c.37,0,.56.2.56.61a.5.5,0,0,1-.56.56c-4.32,0-6.72-.08-7.22-.17s-2.78-.57-6.86-1.43c-.41-.09-.53-.34-.35-.74s.33-.48.74-.4Zm21.49,3.48c.35,0,.94,0,1.78,0l-8,8c-.84,0-1.44,0-1.78,0a3.2,3.2,0,0,0-1.52.59l8-8A2.86,2.86,0,0,1,155.66,10.82Z"/>
      </g>
    </g>
  </g>
</svg>
