<svg xmlns="http://www.w3.org/2000/svg" viewBox="0 0 116.98 165.09">
  <title>spiderlogoAsset 6</title>
  <g id="Layer_2" data-name="Layer 2">
    <g id="Layer_3" data-name="Layer 3">
      <g>
        <path d="M139.27,147.33c.73-.59.77-.69.14-1.27-.36-.32-.31-.72-.39-1.1s-.17-.68.23-1a.52.52,0,0,0,0-.82.54.54,0,0,1-.2-.67.89.89,0,0,0-.44-1.19c-.52-.29-.67-1.07-1.4-1-.57-.69-1.64-1.12-1.21-2.35.14-.39-.51-.21-.47-.49s.48-.25.47-.57c-.16-.22-.4-.14-.61-.2s-.58-.29-.43-.67a1.1,1.1,0,0,0,0-.72c-.16-.62-.6-1.2-.16-1.91.13-.2-.1-.53-.25-.77-.91-1.38-1.62-2.87-2.54-4.24a27.25,27.25,0,0,1-2.24-4.2c-.61-1.36-1.24-2.73-2-4a26,26,0,0,0-1.86-3.06,8.35,8.35,0,0,1-1.75-3.77,19.83,19.83,0,0,0-1-3.79,4.67,4.67,0,0,1-.23-.91c-.18-1.14-.05-2.31-.33-3.44a2,2,0,0,1,0-.84,8.92,8.92,0,0,0-.27-4.44,10.49,10.49,0,0,1-.22-5.64,5.23,5.23,0,0,0,.07-1.12,2.4,2.4,0,0,1,.18-1,5,5,0,0,0,.37-2.66,6.66,6.66,0,0,1,.46-3.3,5.17,5.17,0,0,0,.38-1.45,30.12,30.12,0,0,1,1.72-5.91c.55-1.7,1.3-3.31,1.87-5a50.22,50.22,0,0,1,2.78-6.44c.82-1.61,1.46-3.3,2.38-4.86.25-.42.13-.78-.37-1.09-.29-.17-.49-.31-.52-.68a1.3,1.3,0,0,0-.52-.76,23.16,23.16,0,0,1-2.7-3.54c-.9-1.19-1.49-2.56-2.27-3.83-.34-.56-.76-1.06-1.15-1.58a4.62,4.62,0,0,1-.7-4.28c.54-1.84,2.31-2.18,4.06-1.59a3.32,3.32,0,0,1,2.34,3.13,8.63,8.63,0,0,0,1.47,4c.57.9,1.11,1.82,1.66,2.72.27.45.45,1,1.07,1.1.22,0,.19.28.25.46a2.14,2.14,0,0,0,1.35,1.31c.32.15.46-.07.61-.26a15.1,15.1,0,0,0,1.31-1.7A31.2,31.2,0,0,1,140.8,53a18.76,18.76,0,0,1,2.73-2.69,1.17,1.17,0,0,0,.39-1.09c-.06-1.53-.3-3-.45-4.56a29.25,29.25,0,0,1,0-4.68c.11-1.74.07-3.5,0-5.24a13.67,13.67,0,0,1,.32-3.26,37.18,37.18,0,0,0,.63-5.76c.1-1.34.19-2.68.3-4a2.6,2.6,0,0,1,1.09-2,4.45,4.45,0,0,1,2.56-.9,12.46,12.46,0,0,1,2.86.3c.31.51.91.79,1.08,1.42a4.63,4.63,0,0,1,.33,2.65.73.73,0,0,0,.07.45c.08.23.1.4-.15.55a2.27,2.27,0,0,0-.79,1.13c-.59,1.28-1,2.63-1.49,3.94a2.47,2.47,0,0,0-.17,1.1,8.63,8.63,0,0,1-.33,3.16,32.4,32.4,0,0,0-.55,5c-.27,2,.06,4.05,0,6.07a2.51,2.51,0,0,0,.06.55c.11.43.36.54.67.24a28.94,28.94,0,0,1,4.32-2.79c1.52-1,3.18-1.73,4.77-2.58a14.23,14.23,0,0,1,5.4-1.42,9.94,9.94,0,0,0,3.9-1.22l1.3-.72a1.12,1.12,0,0,1,.53-.15,32.53,32.53,0,0,1,7.37.42,20,20,0,0,0,3.54.2,21.82,21.82,0,0,1,4.62.66c2.42.49,4.73,1.36,7.09,2,1.48.43,2.93,1,4.38,1.52.18.06.35.19.54.12.37-.12.52,0,.69.36a1.74,1.74,0,0,0,1.14.75,8.08,8.08,0,0,1,2.27,1.24c.38.25.71.69,1.21.63.69-.09.45.7.93.86a10.73,10.73,0,0,1,1.56.85c.48.25.49.21.65-.35a15.54,15.54,0,0,0,.32-3.26,31.88,31.88,0,0,0,0-4,27.91,27.91,0,0,0-.5-3.13,28.72,28.72,0,0,1-.77-6.4,3.46,3.46,0,0,0-.64-1.72,6.08,6.08,0,0,1-.24-5.82,1.57,1.57,0,0,0,.32-1.14c0-.13,0-.28.18-.26.51.07.79-.31,1.15-.54a1.23,1.23,0,0,1,.41-.21,4.91,4.91,0,0,1,4,1,2.66,2.66,0,0,1,.69,2.16,11.43,11.43,0,0,1-.13,3.45,8.21,8.21,0,0,0,.14,3.62c.48,2.24.45,4.53.79,6.78a38.56,38.56,0,0,1,.35,6.07,42.17,42.17,0,0,1-.54,5.49,7.55,7.55,0,0,0-.12,2.51.82.82,0,0,0,.3.5,21.4,21.4,0,0,0,1.66,1.36,11.45,11.45,0,0,1,1.7,1.71c.94,1,1.81,2.07,2.72,3.1a1.19,1.19,0,0,0,.5.4.83.83,0,0,1,.67.91c.51-.1.63-.45.76-.79a7.78,7.78,0,0,1,.79-1.58c.85-1.31,1.88-2.48,2.83-3.7a1.77,1.77,0,0,0,.43-.93A20.08,20.08,0,0,1,225,47.65a3.72,3.72,0,0,1,4.22-2.52,2,2,0,0,1,1.63,1.39,3.31,3.31,0,0,1,.2,1.83,12.37,12.37,0,0,1-1.72,4.22c-.79,1.29-1.71,2.5-2.48,3.8s-1.55,2.2-2.2,3.35a7,7,0,0,0-1.31,2.81c0,.14-.14.18-.25.25-.46.33-.5.51-.05.77a.81.81,0,0,1,.47.71,1.61,1.61,0,0,0,.45.8,17.44,17.44,0,0,1,2.47,4.39c.21.54.34,1.16,1,1.44.08,0,.17.15.16.21-.11.86.51,1.41.92,2a19.59,19.59,0,0,1,1.8,3.57A18.13,18.13,0,0,1,232,81.28a1.86,1.86,0,0,0,.63,1.13A9.69,9.69,0,0,1,235,86.08a16.83,16.83,0,0,1,.92,2.35,4.82,4.82,0,0,0,1.4,2,5,5,0,0,1,1.48,3.24,4.34,4.34,0,0,1-.27,1.93,10.87,10.87,0,0,1-.89,2,1.82,1.82,0,0,0-.27,1.08,25.25,25.25,0,0,0,.08,3.37,3.69,3.69,0,0,1-.63,2.76c-.2.28-.13.58-.24.84s-.51,0-.69.33-.62.76-.62,1.23-.26.51-.6.62c.17.22.43.09.59.21s.25.18.28.35a5.34,5.34,0,0,1-.59,1.71c-.07,0-.17.14-.24.12-.75-.14-.71.39-.75.85a22.08,22.08,0,0,0-.39,3.14.55.55,0,0,1-.11.34,6.45,6.45,0,0,0-.79,2.66,38,38,0,0,0-.36,4.76,7.69,7.69,0,0,0,.19,2.14,5.42,5.42,0,0,1-.13,3.14,6.33,6.33,0,0,0-.24,1.84c0,2.16,0,4.31,0,6.47,0,1-.14,2.05-.23,3.08a37.43,37.43,0,0,0-.33,5.5,23.31,23.31,0,0,1-.26,3.73,41.64,41.64,0,0,0,0,5.24c.07,1.9.24,3.8.14,5.71-.13,2.43-.11,4.87-.27,7.3-.2,2.9-.26,5.8-.35,8.7-.05,1.43-.23,2.86-.14,4.3a1.69,1.69,0,0,1-.06.55.58.58,0,0,1-.52.47.56.56,0,0,1-.54-.31,2.3,2.3,0,0,1-.3-.78,8.81,8.81,0,0,1-.18-2.23c0-2.38,0-4.75,0-7.13a14.66,14.66,0,0,1,.13-2.89,1.77,1.77,0,0,0,0-.56c-.29-3.41-.12-6.81-.14-10.22,0-2-.07-4.06-.21-6.08a42,42,0,0,1-.32-4.48c.05-1.12.1-2.25.21-3.37.31-3.14.1-6.3.15-9.45a.64.64,0,0,0-.06-.18c-.15-.08-.21.05-.31.11-.67.45-1.16.35-1.52-.36a4.72,4.72,0,0,1-.59-1.58,1.24,1.24,0,0,0-.47-.91,1.8,1.8,0,0,0-.8.88,18.46,18.46,0,0,1-2.46,3,30.91,30.91,0,0,0-2.74,3.19,1.52,1.52,0,0,1-.47.44.94.94,0,0,0-.28.24c-.26.4-.35.88-.91,1.1a4.83,4.83,0,0,0-1.27.92c-.85.72-1.65,1.52-2.55,2.19-.41.32-.07,1.19-.89,1.13-.57,0-.88.45-1.33.63a1.2,1.2,0,0,0-.24.15c-.67.57-1.66.81-1.75,2a6.13,6.13,0,0,0,0,2.63c.31.91.45,1.88.67,2.83a5.93,5.93,0,0,1-.09,2.14,7,7,0,0,0,.32,2.2,8,8,0,0,1,0,3.15,4.27,4.27,0,0,1-.6,1.54,44.69,44.69,0,0,0-2.06,4.09c-.29.65-.54,1.26-1.3,1.45a2.75,2.75,0,0,1-2.52-.27,23,23,0,0,1-3.25-3.44,3.2,3.2,0,0,1-.59-1.56,11.63,11.63,0,0,1-.29-4.07c0-.22,0-.44,0-.66.13-1-.27-1.38-1.42-1.68a.54.54,0,0,0-.26,0c-.19.75-.54.58-1,.2-.13-.1-.28.09-.43.11-.38.06-.74.06-.65-.48.05-.34-.1-.14-.24-.13-.54,0-.79-.22-.71-.69a7.29,7.29,0,0,1,.48-2.35.21.21,0,0,0-.29-.29c-.69.32-1.49.22-2.15.59a.87.87,0,0,1-.63.09c-.2,0-.42-.11-.52.21a.32.32,0,0,1-.48.13,1.4,1.4,0,0,0-1.1,0c-1,.21-2,.34-3,.55a31.27,31.27,0,0,1-4.31.33c-1.77.14-3.54.25-5.32.38a2.3,2.3,0,0,1-.37,0c-1.71-.17-3.43-.11-5.14-.24-1-.07-1.93-.22-2.89-.28-1.28-.07-2.53-.37-3.8-.53-.86-.11-1.63-.51-2.47-.67a1.38,1.38,0,0,0-1,0,.29.29,0,0,1-.42-.09c-.3-.61-.93-.57-1.45-.71a9.85,9.85,0,0,1-2.55-.81,1.24,1.24,0,0,0-.63-.17c-.13,0-.31.06-.27.18.24.64-.3.6-.62.75-.09,0-.24,0-.25.1-.18.52-.63.73-1,1s-.55.8-.88,1.16a1.81,1.81,0,0,0-.3,2.08,13.92,13.92,0,0,1,.4,1.44,10.54,10.54,0,0,1-.88,8.33,24.17,24.17,0,0,1-1.84,2.36c-.4.54-1,1-.86,1.8,0,.08,0,.23-.1.25-.89.4-.76,1.46-1.34,2.07-.29.3-.19.77-.19,1.18a20.75,20.75,0,0,1-.36,4.85,27.55,27.55,0,0,0-.77,6.2c0,.66-.27,1-.61,1s-.53-.35-.57-1-.07-1.31-.1-2a1.51,1.51,0,0,0,0-.37,2.41,2.41,0,0,1-.13-1.48c0-.06-.09,0-.16,0-.27.19-.45.59-.86.42s-.41-.56-.48-.94a29.62,29.62,0,0,1-.13-4.21c0-.37,0-.75,0-1.12,0-.63-.06-.63-.73-.56-.91.09-1.49-.31-1.52-1.22,0-.56-.32-1.08-.08-1.7.13-.33-.13-.78-.37-1.12a13.12,13.12,0,0,0-.83-1.13,2.77,2.77,0,0,1-.38-3.07,3.58,3.58,0,0,0,.05-2.17c-.09-.49-.17-1-.76-1.17-.22-.07-.5-1.19-.43-1.44a.38.38,0,0,1,.64-.22,2.13,2.13,0,0,1,.32.38,1,1,0,0,0,.51-1,17.53,17.53,0,0,1,.19-2.61,3.08,3.08,0,0,0-.69-2,3,3,0,0,1-.47-1.76,2.24,2.24,0,0,0-.17-1.09,1,1,0,0,1,.22-1.25,1.07,1.07,0,0,0-.63-1.61c-.67-.07-.89-.46-1-1Zm29.66-50.47c-.58.14-1,.67-1.32.62a2.27,2.27,0,0,0-2.19,1.11,1.55,1.55,0,0,1-1.21.63,4.21,4.21,0,0,0-1.76.58,13.84,13.84,0,0,0-3.21,2.41,11.6,11.6,0,0,0-1.35,1.62,44,44,0,0,0-3.47,6.18,18.16,18.16,0,0,0-1.3,5.34c-.15,1.12-.15,2.25-.25,3.36a40.52,40.52,0,0,0-.45,5.6c.09,1.87.21,3.73.33,5.59a2.38,2.38,0,0,1,0,.84,5.81,5.81,0,0,0,0,3.84c.38,1,.46,2.18,1.43,2.91.12.08.14.28.22.41a7.3,7.3,0,0,1,.64,2,1.22,1.22,0,0,1,.07.9.51.51,0,0,0,0,.45c.36.64.67,1.3,1.48,1.57s1.74.68,2.62,1c2.85,1,5.69,2.06,8.6,2.89a10.9,10.9,0,0,0,2.57.49c1.09,0,2.14.36,3.23.42a18.48,18.48,0,0,0,3.64.18,13,13,0,0,1,2.24-.13c1.32,0,2.62-.15,3.93-.25a15,15,0,0,0,3.32-.53,15.18,15.18,0,0,1,2.56-.48c1.71-.23,3.36-.68,5-1.06,1.37-.31,2.72-.72,4.06-1.13a2.08,2.08,0,0,0,1.5-1c.05-.11.13-.27.25-.12.41.48.71.07,1.05-.1a1.45,1.45,0,0,0,.8-1,10.55,10.55,0,0,0,.37-2.48,30.27,30.27,0,0,0,.28-4.76,7,7,0,0,1,.11-1.29,23.79,23.79,0,0,0,.48-4.84c-.16-2.11-.46-4.21-.71-6.32a37,37,0,0,1-.45-4.94,26.81,26.81,0,0,0-.56-5.58,4.43,4.43,0,0,0-.39-1c-.65-1.36-1.52-2.6-2.21-3.93-.43-.84-.91-1.63-1.41-2.42s-1.37-1.17-1.57-2.12c0-.13-.19-.25-.32-.33a12.29,12.29,0,0,0-1.91-1.25,22.29,22.29,0,0,0-3.2-1.29c-.75-.2-.76-.27-1.15.45a2.15,2.15,0,0,1-2,1.39c-.5,0-.74.26-.74.76,0,.22,0,.44,0,.65,0,3.47,0,6.94-.12,10.4,0,1-.12,1.14-1.18,1.41v7.1c0,1,0,2.06,0,3.09s0,2,0,3,.12,2,0,3,0,1.94,0,2.91a3.07,3.07,0,0,1-.05.74.56.56,0,0,1-.93.37,1.6,1.6,0,0,1-.85-1.55,50.36,50.36,0,0,0,.09-7.67c-.1-1.46.05-2.93.09-4.4.08-3.56.05-7.12.07-10.68a.87.87,0,0,0-.43-.86,2.09,2.09,0,0,1-1-1.74c-.08-1.27-.35-2.53-.36-3.81a1.22,1.22,0,0,0-.31-.86c0,1.32,0,2.47,0,3.63a13.54,13.54,0,0,1-.47,4.82,2.39,2.39,0,0,0,.06,1.56,2.43,2.43,0,0,1,.18,1.1c-.06.59-.4.83-1,.7a1,1,0,0,1-.83-.79,5,5,0,0,1-.39-2.53c.14-.85-.31-1.22-1.14-1a4.37,4.37,0,0,1-.78.31c-.76.08-.94.29-.94,1a7.14,7.14,0,0,1,0,1,3.65,3.65,0,0,1-1.26,2.43.69.69,0,0,1-1.12-.76,5.7,5.7,0,0,1,.3-.78,3.18,3.18,0,0,0,.16-2.29c-.11-.42-.15-.86-.29-1.27a5.37,5.37,0,0,1-.06-3.05,6.16,6.16,0,0,0,.14-1.86,12.51,12.51,0,0,1-.2-2.59,12,12,0,0,0-.82,3.79,12.16,12.16,0,0,1-.28,3.07c-.24.91-.8,1.11-1.61.62-.1-.06-.16-.2-.35-.09v1.94c0,.69-.05,1.38,0,2.06s-1,1-1.48.64a1.32,1.32,0,0,1-.46-.69,4.05,4.05,0,0,1-.18-1.76,7.11,7.11,0,0,0,.13-1.21c0-4.31.12-8.62,0-12.93C169,97.84,169,97.38,168.93,96.86Zm.88-27h0c0-.57,0-1.13,0-1.69a5.75,5.75,0,0,1,.64-2.79,2.17,2.17,0,0,1,1.17-1.12,2.58,2.58,0,0,1,3.5,1.17,4.71,4.71,0,0,1,.51,2.17c0,.91,0,1.81,0,2.72a5.76,5.76,0,0,0,1.16,3.48c.12.15.19.31.43.28a2,2,0,0,0,1.79-2c-.06-1.41.13-2.8.14-4.21a3.92,3.92,0,0,1,.87-2.49,3.69,3.69,0,0,1,4.06-1.06,1,1,0,0,1,.7.7,5.61,5.61,0,0,1,.33,2.57,7.34,7.34,0,0,0,0,2.43,3.61,3.61,0,0,1,0,1.39,5.63,5.63,0,0,0,.62,3.44c.32.73.74.9,1.52.64.93-.32,1.88-.68,2.81-.95,1.59-.47,2.79-1.54,4.22-2.23a.83.83,0,0,0,.15-.11,43.57,43.57,0,0,0,3.81-3.63c.11-.14.11-.34.3-.45a6.61,6.61,0,0,0,2.09-2.22,23.13,23.13,0,0,0,2.58-5.17,23.18,23.18,0,0,1,.91-2.45c.31-.69.49-1.41.73-2.12a.84.84,0,0,0-.36-1c-.61-.44-1.1-1-1.68-1.48s-1.26-1.33-2.24-1.46c-.18,0-.22-.2-.3-.33a1.33,1.33,0,0,0-.51-.54,9.22,9.22,0,0,0-2.46-1.1c-.12,0-.32,0-.35-.08-.37-.87-1.28-.93-2-1.31a23.15,23.15,0,0,0-6.59-2.3c-2.08-.42-4.14-.91-6.19-1.45a18.37,18.37,0,0,0-6.21-.5c-2.52.22-5,.71-7.53.88a8.44,8.44,0,0,0-2.5.21,6.43,6.43,0,0,1-1.05.34,47.21,47.21,0,0,0-5.22,1.65,17.31,17.31,0,0,0-3,1.34,19.58,19.58,0,0,0-3.31,1.93,25,25,0,0,1-2.66,2,.73.73,0,0,0-.31.9c.23.93.64,1.82.86,2.73.34,1.4,1.26,2.48,1.68,3.82a15.82,15.82,0,0,0,1.36,2.21,13.65,13.65,0,0,1,1.27,2.9,2.46,2.46,0,0,0,.38.86,21.35,21.35,0,0,0,1.9,2.65,10.17,10.17,0,0,0,1.64,1.64c1.28.8,2.26,2,3.55,2.73.38.24.64.7,1.21.51a.24.24,0,0,1,.3.16c.09.42.45.4.73.46,1,.21,1.9.4,2.85.56.75.12.85,0,1-.71a3.33,3.33,0,0,1,.25-.9,4.33,4.33,0,0,0,.4-2.18Zm-6.92,17.34a5.61,5.61,0,0,0-1.42-.87c-.2-.11-.45-.19-.55.23s-.45.15-.46,0c0-.56-.41-.45-.74-.46s-.74.21-1.11,0a8.38,8.38,0,0,1-1.92-1,6,6,0,0,0-2.19-1c-1.66-.45-3.19-1.07-4-2.76a2.63,2.63,0,0,0-1.41-1.19c-1.54-.7-2.42-2.21-3.79-3.13-.3-.79-1.11-1.19-1.53-1.92a4.57,4.57,0,0,0-1-1A15.11,15.11,0,0,1,140.39,72c-.72-1-1.63-2-2.37-3-.41-.59-.72-.53-1.07.15a31.12,31.12,0,0,0-1.61,3.28,32.59,32.59,0,0,0-1.57,4.65,10.7,10.7,0,0,1-1.29,3.58,3.28,3.28,0,0,0-.82,2.33.37.37,0,0,1-.2.39c-.49.18-.52.64-.55,1a29.63,29.63,0,0,0-.26,3.26,12,12,0,0,1-.53,4.52,9.47,9.47,0,0,0-.24,4.34c.14,1.22.1,2.48.22,3.73a6.42,6.42,0,0,0,1.45,4.12.31.31,0,0,1,0,.42c-.28.4,0,.72.15,1l1.51,2.69c.58,1,0,2.23.55,3.26.09.17,0,.36-.08.54a10.39,10.39,0,0,1-1,2.8,1.53,1.53,0,0,0-.1,1.44L134,119.9c.31.81.3.81,1.1.85-.42.77-.41.77,0,1.63.29.56.5,1.15.81,1.69.53.89.82,2,1.82,2.52.05,0,.12.09.12.12-.17.72.45,1.14.74,1.61.82,1.36,1.82,2.6,2.76,3.88a1.23,1.23,0,0,0,.49.42.75.75,0,0,1,.54.56.4.4,0,0,0,.5.32c.21-.06.22-.26.27-.45a5.13,5.13,0,0,1,1.28-2.58,12.32,12.32,0,0,0,2.15-3.68,11,11,0,0,0,.45-2.66,2.42,2.42,0,0,0-.24-1.73,2.41,2.41,0,0,1,.07-2.66,3.68,3.68,0,0,0,.44-2,22.46,22.46,0,0,1,.94-6.36,11.24,11.24,0,0,0,.6-2.92,5.4,5.4,0,0,1,.2-1.11,15.26,15.26,0,0,1,1.32-3.56,57.68,57.68,0,0,1,4-7.29c.38-.56.73-1.15,1.08-1.73a9.71,9.71,0,0,1,1.43-1.6c.11-.1.26-.2.18-.38s-.25-.16-.4-.17c-1.15-.11-2.3-.25-3.45-.33a19.15,19.15,0,0,0-6.3.62,2.26,2.26,0,0,0-1.52,1.15,4.77,4.77,0,0,1-.42.73A5.23,5.23,0,0,1,142,97a5.92,5.92,0,0,0-2.57.74c-.09.07-.24,0-.36.07-.68.09-.71.11-.71.8,0,.47,0,.94,0,1.41a1.57,1.57,0,0,1-.24.89,1,1,0,0,1-1.59.08,1.88,1.88,0,0,1-.39-1.55,2.6,2.6,0,0,0-.65-2.69c-.2-.2-.38-.41-.57-.61a6.44,6.44,0,0,1-2-3.93,11.41,11.41,0,0,1,.61-4.78,3.09,3.09,0,0,1,.52-.87c1.18-1.53,2.9-2.11,4.63-2.64a3.58,3.58,0,0,1,1.66,0c1,.18,1.89.8,2.88,1.07.08,0,.19.1.2.17.17.7.86.87,1.28,1.31a2,2,0,0,0,2.32.45,4.14,4.14,0,0,1,2.65,0,3.07,3.07,0,0,0,1.19.2,7.85,7.85,0,0,1,2.32.22,3.24,3.24,0,0,0,1,0,25.78,25.78,0,0,1,4.48,0A13.12,13.12,0,0,0,162.89,87.23Zm47.21,50c.54-.26,1.08-.42,1.24-1a.33.33,0,0,1,.33-.28c.61,0,1-.49,1.43-.83a34.77,34.77,0,0,0,3.58-3.6,1.6,1.6,0,0,0,.47-1.53,7.39,7.39,0,0,1-.08-2.61,11.76,11.76,0,0,0,.12-1.68c0-.84-.12-1.68-.15-2.51-.08-3.12,0-6.24-.14-9.36a5.52,5.52,0,0,1,.36-2.67,10.43,10.43,0,0,0,1.08-4.41,3.43,3.43,0,0,1,.23-1.09,3.22,3.22,0,0,0,.14-2.1,5.58,5.58,0,0,1-.15-1.58c0-1.25-.05-2.5,0-3.75a2.14,2.14,0,0,0-.56-1.54A9.52,9.52,0,0,0,216.3,95a8.92,8.92,0,0,0-2.48-1.45,13.87,13.87,0,0,1-2.64-1,8,8,0,0,0-4.2-.67,36.25,36.25,0,0,0-6.13.59,34.05,34.05,0,0,1-4.07.55,3.8,3.8,0,0,0-1.48.53c.38.18.72.25.78.67,0,.24.32.36.52.5.57.42,1.3.6,1.75,1.2.1.12.34.14.51.21.89.36,1.9.51,2.46,1.44a1.12,1.12,0,0,0,.62.41c.29.09.51.24.45.6a1,1,0,0,0,.22.7,23,23,0,0,1,1.77,3.8c.05.11.08.26.17.33.47.37.5.89.67,1.42a38.05,38.05,0,0,0,1.79,4.41,8.73,8.73,0,0,1,.92,3.11c.1,1.53.14,3,.15,4.58a8.32,8.32,0,0,0,.07,1.12c.25,2,.62,4,.81,6a75,75,0,0,1,.67,9.23C209.59,134.63,210.09,135.86,210.1,137.18ZM193.35,88.53c1.22,0,2.53.48,3.62-.53a.3.3,0,0,1,.26,0c.63.26,1.15-.09,1.68-.33a2.28,2.28,0,0,1,.87-.31,5.55,5.55,0,0,0,1.9-.44,7.93,7.93,0,0,1,3.06-.27c2,.11,4,.36,6,.34a1.43,1.43,0,0,0,.82-.09c.25-.16,0-.41,0-.61a2.83,2.83,0,0,0,.26-.48.9.9,0,0,1,.56-.58c.54-.26-.21-.51,0-.76,0,0,0-.07.05-.08.43-.17.38-.59.52-.92s.28-.79.73-.74a1,1,0,0,0,.9-.35,1.32,1.32,0,0,1,1.13-.34.89.89,0,0,0,.83-.31,2.08,2.08,0,0,1,1.62-.55A3.41,3.41,0,0,0,221.05,80a.62.62,0,0,0,.09-.81c-.39-.72-.17-1.27.48-1.86.35-.32.93-.48,1-1A2.18,2.18,0,0,0,222,74a2,2,0,0,1-.5-.54c-.41-.73-.81-1.47-1.15-2.24a3.48,3.48,0,0,0-1.18-1.42c-.89-.65-.89-.65-1.62.13-.19.21-.36.43-.55.64-.68.73-1.34,1.47-2,2.19-.38.4-.91.68-1,1.31,0,.08-.11.2-.15.2-.75-.06-1,.61-1.37,1-1,1.06-2.28,1.94-3.33,3s-2.11,2.31-3.29,3.32a44.44,44.44,0,0,1-6,4.32,33.33,33.33,0,0,0-3.57,1.83.41.41,0,0,1-.36,0,2.12,2.12,0,0,0-1.35.25C194.17,88.22,193.82,88.54,193.35,88.53Zm-31.91-8A3.45,3.45,0,0,0,161,80c-.31-.25-.4-.71-.89-.77s-.23-.67-.59-.93c-1-.69-1.62-1.73-2.68-2.33a2.48,2.48,0,0,1-.5-.42,30.11,30.11,0,0,0-2.82-2.46.64.64,0,0,0-.49-.22c-.34,0-.38-.15-.42-.45a7,7,0,0,0-1-2.2c-.61,0-.56-.46-.51-.87a1.36,1.36,0,0,0-.16-.72c-.51-1.14-1-2.28-1.53-3.42-.65-1.45-1.1-3-1.76-4.43a19.35,19.35,0,0,1-1.26-3.39c-.12-.47-.36-.51-.76-.2s-.53.54-.84.75a10.21,10.21,0,0,0-2.34,2.39c-.18.25-.22.69-.44.8-.62.3-.84.9-1.22,1.38-.52.66-.48,1,.07,1.65A49.5,49.5,0,0,1,144,68.06a4.7,4.7,0,0,0,1.79,1.72,1.42,1.42,0,0,1,.94.85,1.34,1.34,0,0,0,.74.68,2,2,0,0,1,.63.53c1,1.09,1.88,2.32,3,3.32.53.48,1.12.89,1.63,1.39a4.6,4.6,0,0,0,1.92,1.11,11.66,11.66,0,0,1,2.59,1.06,1.29,1.29,0,0,0,.88.23.72.72,0,0,1,.85.58c.12.61.56.74,1,.92S160.93,80.85,161.44,80.5Zm32.65,1a4.06,4.06,0,0,0,3-.7c.3-.16.48-.52.92-.49s.56-.26.81-.43a3.8,3.8,0,0,1,.74-.56,15.82,15.82,0,0,0,3.72-2.49c1-.77,1.89-1.73,2.93-2.46a23.12,23.12,0,0,0,2.13-1.81c.72-.61,1.2-1.43,1.9-2.08s1.27-1.84,2.12-2.59a.59.59,0,0,0,.23-.39c0-.35.19-.48.51-.56a1.12,1.12,0,0,0,.65-.5,8.14,8.14,0,0,1,1-1.1c.55-.53.6-.71,0-1.23s-1-1.52-1.88-1.91c-.14-.06-.13-.19-.18-.3a1.71,1.71,0,0,0-1.2-1c-.12,0-.28,0-.31-.15-.17-.92-1-1.09-1.62-1.56-.33-.26-.57-.17-.72.21a2.64,2.64,0,0,0-.15.45A16.71,16.71,0,0,1,207,64.59c-.51,1.08-1.21,2.1-1.66,3.21-.51,1.27-1.39,2.37-1.64,3.74,0,.08-.11.15-.17.21-.95.94-1.75,2-2.66,3a31,31,0,0,1-2.67,2.58,27.86,27.86,0,0,0-2.63,2.58C195.07,80.4,194.59,80.91,194.09,81.51Zm27,30.5c-1.15,1.39-.55,3.11-.93,4.66a3.8,3.8,0,0,0,.05,1.3,10.2,10.2,0,0,1-.05,4.26,2.2,2.2,0,0,0-.07,1,23.79,23.79,0,0,1,.18,2.8c0,.22-.08.51.27.65a21.77,21.77,0,0,0,1.07-2c.44-.73,1.27-.84,2-1.42-.91-.06-1.12-.65-1.34-1.24a8.18,8.18,0,0,1-.57-3.21c.08-2-.29-4-.2-6.08A.72.72,0,0,0,221.1,112Zm3.81,7.91c1.16-1.75,1-6.07.34-7.69C224.69,114.78,225.22,117.37,224.91,119.92Z" transform="translate(-121.79 -18.82)"/>
        <path d="M151,181.26c-.07.38-.11.79-.22,1.18a.66.66,0,0,1-.67.55.83.83,0,0,1-.8-.55,1.53,1.53,0,0,1-.13-1c.38-1.18.24-2.42.53-3.6A6.91,6.91,0,0,1,150,177c.07-.17.18-.35.41-.3a.46.46,0,0,1,.33.41.28.28,0,0,1,0,.09C150.73,178.58,150.92,179.91,151,181.26Z" transform="translate(-121.79 -18.82)"/>
        <path d="M139.23,147.37c-.29.18-.6.42-.88,0a.69.69,0,0,1,.12-.85c.21-.28.47-.24.66.07a1.17,1.17,0,0,1,.14.71Z" transform="translate(-121.79 -18.82)"/>
        <path d="M158.81,135.6c0,.32,0,.69-.06,1.06s-.16.51-.45.53a.56.56,0,0,1-.55-.44,1.46,1.46,0,0,1-.12-.54c.07-.65.15-1.3.26-2,0-.21.14-.45.4-.45s.42.26.45.52S158.79,135.13,158.81,135.6Z" transform="translate(-121.79 -18.82)"/>
        <path d="M201,137.64c0,.5-.44.81-.76.54a2.31,2.31,0,0,1-1-1.41.79.79,0,0,1,.46-.93c.32-.14.57.07.78.59Z" transform="translate(-121.79 -18.82)"/>
        <path d="M168.68,118.1a1.91,1.91,0,0,1-.52-.19c-.28-.2-.55-.47-.42-.85a1.15,1.15,0,0,1,.77-.76c.29-.09.47.07.61.3a1.34,1.34,0,0,1,0,1.26Z" transform="translate(-121.79 -18.82)"/>
        <path d="M187.75,117.1a.72.72,0,0,1-.8.66c-.39-.05-.5-.32-.48-.66s.28-.58.7-.55S187.74,116.78,187.75,117.1Z" transform="translate(-121.79 -18.82)"/>
        <path d="M168.68,118.1l.42-.24a2.37,2.37,0,0,1,.46,0,.43.43,0,0,1,.41.6.52.52,0,0,1-.66.38A.75.75,0,0,1,168.68,118.1Z" transform="translate(-121.79 -18.82)"/>
        <path d="M176.9,56.49c.07.24.25.36.24.56a.74.74,0,0,1-.47.64.4.4,0,0,1-.51,0c-.23-.21-.4-.51-.21-.74.46-.55.22-1,0-1.52a1.24,1.24,0,0,1,.22-1.31,4.9,4.9,0,0,1,.44-.48c.28-.37.47-.41.74-.06a2.85,2.85,0,0,1,.64,1.8C177.91,56.18,177.82,56.31,176.9,56.49Z" transform="translate(-121.79 -18.82)"/>
        <path d="M175.68,58.65a2.7,2.7,0,0,1,0,.47.57.57,0,0,1-.56.52.61.61,0,0,1-.68-.37c-.16-.43-.33-.87-.45-1.31a1.44,1.44,0,0,1,.48-1.34c.19-.23.61-.09.87.25A3.11,3.11,0,0,1,175.68,58.65Z" transform="translate(-121.79 -18.82)"/>
        <path d="M161.59,52c-.53,0-.87-.23-.83-.63s.11-.64.6-.63,1,.22,1.08.62S162.11,51.93,161.59,52Z" transform="translate(-121.79 -18.82)"/>
        <path d="M138.28,102.77a4.69,4.69,0,0,1,.4-1.8.4.4,0,0,1,.36-.26c.19,0,.27.15.32.3a13.85,13.85,0,0,1,.44,2.38.62.62,0,0,1-.58.72.65.65,0,0,1-.79-.5A2.91,2.91,0,0,1,138.28,102.77Z" transform="translate(-121.79 -18.82)"/>
      </g>
    </g>
  </g>
</svg>
