<svg xmlns="http://www.w3.org/2000/svg" viewBox="0 0 422.22 226.93"><defs><style>.cls-1,.cls-2,.cls-9{fill:#fff;}.cls-1,.cls-4{stroke:#000;}.cls-1,.cls-3,.cls-4,.cls-9{stroke-miterlimit:10;}.cls-3,.cls-9{stroke:#fff;}.cls-4{fill:none;}.cls-5{font-size:60px;}.cls-5,.cls-9{font-family:Black-Magic, Black Magic;}.cls-6{letter-spacing:0.01em;}.cls-7{letter-spacing:0.35em;}.cls-8{letter-spacing:-0.09em;}.cls-9{font-size:36px;}</style></defs><title>full_logo</title><g id="logo"><path d="M249.93,197.25A82.93,82.93,0,1,1,167,280.18a83,83,0,0,1,82.93-82.93m0-2a84.93,84.93,0,1,0,84.93,84.93,84.93,84.93,0,0,0-84.93-84.93Z" transform="translate(-165 -195.25)"/><path d="M267.21,362.47c-24.11,0-44.68-34.57-52.62-57.82a76.25,76.25,0,0,1-4.65-29.71c.83-15.95,7.27-35,16.81-49.81,11.11-17.22,25-26.7,39.17-26.7a33,33,0,0,1,6.3.61c15.79,3,31.6,12.72,43.37,26.59,12.31,14.51,19.1,32,19.1,49.29,0,21-6,41.16-16.79,56.7-11.31,16.25-27.11,26.75-45.68,30.37A26.49,26.49,0,0,1,267.21,362.47Z" transform="translate(-165 -195.25)"/><path d="M265.92,197.93v1a32.64,32.64,0,0,1,6.2.6c15.69,3,31.39,12.64,43.09,26.42,12.24,14.42,19,31.81,19,49,0,20.93-5.93,41-16.7,56.41-11.24,16.14-26.93,26.57-45.37,30.17a26.18,26.18,0,0,1-4.91.47c-23.85,0-44.25-34.37-52.15-57.48A76.09,76.09,0,0,1,210.44,275c.82-15.87,7.23-34.87,16.73-49.57,11-17.07,24.77-26.47,38.75-26.47v-1m0,0c-31.88,0-54.88,46.13-56.48,77a77,77,0,0,0,4.68,29.9c7.44,21.78,27.8,58.15,53.09,58.15a27,27,0,0,0,5.1-.49c38.85-7.57,62.88-44.77,62.88-87.56,0-36.73-30.29-70.12-62.88-76.37a33.55,33.55,0,0,0-6.39-.62Z" transform="translate(-165 -195.25)"/><path class="cls-1" d="M249.76,364.62c-49.21-1.93-66.16-36-66.16-36s6.93-16.45,31.44-24.83c9.39-3.22,21.07-5.44,35.42-5.44,5.72,0,38.69,0,49.54,17.05,1.18,1.86,3.44,6,6.11,5.79,4.45-.38,6-14,6.76-22.19.4-4.6,6.52-30.19-9.65-46-8.57-8.38-11.26-9.33-15.76-17.38-2.43-4.33-5-13-.65-16.4s13.39,2.07,14.16,4.18c.63,1.76-7.09,2-7.72,5.79-.72,4.26,3.68,8.08,7.4,11.58,8.79,8.29,18.78,21.12,22.83,28.31,1.62,2.86,5.93,24.39,4.51,36C327.46,309.36,312.12,367.06,249.76,364.62Z" transform="translate(-165 -195.25)"/><path class="cls-2" d="M293.23,227.13s16.88,11.54,19.45,9.93c0-2.57-15.43-16.37-15.43-16.37Z" transform="translate(-165 -195.25)"/><path class="cls-3" d="M212.57,305.36s5.73,43.62,32.32,60c-17.91.82-50.43-12.59-63.6-36C199.4,305.36,212.57,305.36,212.57,305.36Z" transform="translate(-165 -195.25)"/><path class="cls-1" d="M241.86,324.46" transform="translate(-165 -195.25)"/><path class="cls-4" d="M244.5,365.6s-30.62-21.39-32.26-60.89" transform="translate(-165 -195.25)"/><path class="cls-1" d="M257.14,209.43s1.34,11.12-11.56,11.12c12.45,0,11.56,11.12,11.56,11.12s.45-11.12,9.34-11.12C258,220.55,257.14,209.43,257.14,209.43Z" transform="translate(-165 -195.25)"/><path class="cls-1" d="M268.45,242.91s1,11.68-8.91,11.68c9.59,0,8.91,11.68,8.91,11.68s.34-11.68,7.2-11.68C269.13,254.59,268.45,242.91,268.45,242.91Z" transform="translate(-165 -195.25)"/><path class="cls-1" d="M239.44,264.67s1.27,10.54-11,10.54c11.82,0,11,10.55,11,10.55s.42-10.55,8.86-10.55C240.29,275.21,239.44,264.67,239.44,264.67Z" transform="translate(-165 -195.25)"/><path class="cls-1" d="M280.43,282.09s1,8.58-8.93,8.58c9.61,0,8.93,8.59,8.93,8.59s.34-8.59,7.21-8.59C281.11,290.67,280.43,282.09,280.43,282.09Z" transform="translate(-165 -195.25)"/><path class="cls-1" d="M294.78,258.49s1.32,12.89-11.42,12.89c12.3,0,11.42,12.88,11.42,12.88s.44-12.88,9.22-12.88C295.66,271.38,294.78,258.49,294.78,258.49Z" transform="translate(-165 -195.25)"/><path class="cls-1" d="M236.8,236.15s1.5,9-13,9c14,0,13,9,13,9s.5-9,10.47-9C237.8,245.19,236.8,236.15,236.8,236.15Z" transform="translate(-165 -195.25)"/><path d="M248.66,195.9v3h1.22c39.59.67,82,33.76,82,81.93a81.93,81.93,0,0,1-163.86,0c0-25,12.09-43.34,15.8-48.37a92.46,92.46,0,0,1,18.11-17.32c14.67-10.78,30.4-16.25,46.74-16.25v-3m0,0c-40.8,0-66.16,33.29-67.27,34.79A87.42,87.42,0,0,0,165,280.84a84.93,84.93,0,0,0,169.86,0c0-49.81-43.82-84.23-84.93-84.93Z" transform="translate(-165 -195.25)"/></g><g id="flair"><path d="M540,202c36,74,33.61,126.79-6,144-98.15,42.66-244.93,29.32-302,13,33,32,41,63,187.53,63.18,51.18-6.79,83.78-16.33,104.11-25.58C553.26,383.12,614,358,574,260,572,255.09,538.54,199,540,202Z" transform="translate(-165 -195.25)"/></g><g id="text_copy" data-name="text copy"><g id="text"><text class="cls-5" transform="translate(185.27 59.41)"><tspan class="cls-6">L</tspan><tspan x="35.22" y="0">unar</tspan><tspan class="cls-7" x="0" y="72">	</tspan><tspan class="cls-8" x="36" y="72">S</tspan><tspan x="77.76" y="72">wan</tspan></text><text class="cls-9" transform="translate(184.13 207.23)">Catering</text></g><path d="M350.51,230.42q0-5.89,3-9.18a16.57,16.57,0,0,1,6.57-4.61,15.94,15.94,0,0,1,5.52-1l26-.06q-.6.18-1.14.3l-1.08.24a19.45,19.45,0,0,0-5.34,2q-2,1.17-2,4.35V251a9.87,9.87,0,0,0,1.35,4,29.64,29.64,0,0,0,3.87,5.55,35.27,35.27,0,0,0,8.55,7.24,22.17,22.17,0,0,0,12,3.27A10.92,10.92,0,0,0,412.7,270a3.57,3.57,0,0,0,2.13-3.45,3.12,3.12,0,0,0-.54-1.92A6.87,6.87,0,0,0,413,263.3q-.48-.36-1-.72a9.89,9.89,0,0,1-1.08-.84,5.64,5.64,0,0,1,.75-1.17,7.74,7.74,0,0,1,.81-.81,3.75,3.75,0,0,1,1.35-.6,5.8,5.8,0,0,1,1.05-.12h.54a2,2,0,0,1,1.8.93,6.13,6.13,0,0,1,.84,2,10.67,10.67,0,0,1,.24,1.47q.06.69.06,1.11,0,5-3.21,6.45a18.83,18.83,0,0,1-7.05,1.53h-1.26q-7.56,0-12.21-2.34a37.93,37.93,0,0,1-7.89-5.16q-1.68-1.5-3.09-2.91a30.9,30.9,0,0,0-2.79-2.49,12.27,12.27,0,0,0-2.49-1.56,6.4,6.4,0,0,0-2.73-.6H365a10.3,10.3,0,0,0-4.47.9,15.73,15.73,0,0,0-3.21,2,18.37,18.37,0,0,0-1.77,1.77,6.22,6.22,0,0,1-1.05,1.05,13.17,13.17,0,0,1,3.81-5.1,12.28,12.28,0,0,1,4.35-2.1,15.69,15.69,0,0,1,2.52-.39q1.26-.09,2.46-.09a15.34,15.34,0,0,0,4.89-.9q2-.78,2-4.93V222.75a4.59,4.59,0,0,0-1.17-3.39,7,7,0,0,0-4.44-2.17q-.93-.09-1.41-.09-8.16,0-11.1,3.44a13.25,13.25,0,0,0-2.94,8.92,11.13,11.13,0,0,0,2.1,6.84,10.17,10.17,0,0,0,4.62,3.72,4.46,4.46,0,0,0,1.08.33,6.56,6.56,0,0,0,1.08.09,10.26,10.26,0,0,0,1.74-.18,5.53,5.53,0,0,0,2-.84,8.35,8.35,0,0,0,2.28-2.13,11.82,11.82,0,0,0,1.8-3.93q-.36,4.86-2.61,6.57a9,9,0,0,1-5.61,1.71q-6,0-8.76-3.3a11.86,11.86,0,0,1-2.76-7.86Z" transform="translate(-165 -195.25)"/><path d="M384.71,232.89a11.52,11.52,0,0,1,2.43-2.76,6.57,6.57,0,0,1,2.67-1.33,2.23,2.23,0,0,1,.63-.15q.33,0,.69,0a2.3,2.3,0,0,1,1.83.72,4.16,4.16,0,0,1,.87,1.57,6.13,6.13,0,0,1,.3,1.38c0,.44.06.73.06.85v13.11a7.44,7.44,0,0,0,.42,2.59q.42,1.14,2.1,1.14a2.64,2.64,0,0,0,1.14-.33,9.39,9.39,0,0,0,1.32-.81,17.47,17.47,0,0,0,1.53-1.47,9.47,9.47,0,0,0,1.23-1.66,4.37,4.37,0,0,0,.54-1.11,3.51,3.51,0,0,0,.18-1V233.14a4,4,0,0,1,1.59-3.16,5.87,5.87,0,0,1,3.93-1.36V250a.29.29,0,0,0,.06.15,2.1,2.1,0,0,0,.24.27,1.89,1.89,0,0,0,.45.21,2.22,2.22,0,0,0,.69.09,4.63,4.63,0,0,0,1.89-.57,12.55,12.55,0,0,0,2.91-2.25l-1,1.41q-.72,1-1.68,2.07c-.64.65-1.32,1.28-2,1.9a8.86,8.86,0,0,1-2.16,1.41l-.93.24a3.37,3.37,0,0,1-.87.12,2.67,2.67,0,0,1-2.4-1,5.13,5.13,0,0,1-.66-2.85v-2.7a14.61,14.61,0,0,1-1.08,1.2q-.6.6-1.26,1.2a23.29,23.29,0,0,1-3.45,2.73A8.46,8.46,0,0,1,393,255h-.42a2.89,2.89,0,0,1-2.85-1.71,11.08,11.08,0,0,1-1-3.82,4.37,4.37,0,0,1-.06-.72V234a5.19,5.19,0,0,0-.21-1.57,1,1,0,0,0-1-.66,5.68,5.68,0,0,0-1.08.3,7.66,7.66,0,0,0-1.56.84Z" transform="translate(-165 -195.25)"/><path d="M437,238.52v3.24q-.06.66-.06,1.44V249a13.18,13.18,0,0,0,.06,2,1.54,1.54,0,0,0,.27,1,.85.85,0,0,0,.69.33,2.72,2.72,0,0,0,1.35-.51,15,15,0,0,0,1.89-1.47,10.48,10.48,0,0,1-1.47,2.16,10.28,10.28,0,0,1-1.65,1.5,8.71,8.71,0,0,1-1.71.81,4.69,4.69,0,0,1-1.47.27,3.64,3.64,0,0,1-2.55-1,3.88,3.88,0,0,1-1.05-3l.06-13.56v-.66a2,2,0,0,0-.06-.48,2.56,2.56,0,0,0-.45-1.23,1.66,1.66,0,0,0-1.47-.57,2.23,2.23,0,0,0-1.14.36,6.31,6.31,0,0,0-1.2,1q-.48.48-1,1t-.9,1.08a25.65,25.65,0,0,0-1.59,2.31,10.86,10.86,0,0,0-.63,1.11v10.2q-.06.12-.12.27t-.12.27a5.08,5.08,0,0,1-1.77,1.74,7.11,7.11,0,0,1-2.61,1l-.48.09-.48,0V234.56a1.08,1.08,0,0,0-.18-.66.61.61,0,0,0-.54-.25,3.27,3.27,0,0,0-1.29.4,18.18,18.18,0,0,0-2.07,1.23,28.83,28.83,0,0,1,4.14-4.6c1.28-1.09,2.26-1.64,2.94-1.64q2,0,2.28,2.61a51.6,51.6,0,0,1,.3,5.85v1.26q.3-.48,1.2-1.86t2.1-2.88a26.18,26.18,0,0,1,2.82-3,7.66,7.66,0,0,1,3.18-1.83,2.19,2.19,0,0,1,.57-.15,5.17,5.17,0,0,1,.57,0q2.46,0,3.06,1.77a13.45,13.45,0,0,1,.6,4.29v1.74a5.93,5.93,0,0,0-.06.84v.84Z" transform="translate(-165 -195.25)"/><path d="M459.41,229h5.22v22.2a1,1,0,0,0,.27.66.57.57,0,0,0,.51.12,3.58,3.58,0,0,0,1.56-.51l2.16-1.17q-.18.36-.42.75a6.46,6.46,0,0,1-.54.75,11.91,11.91,0,0,1-1.74,1.74,6.6,6.6,0,0,1-2.1,1.2,5,5,0,0,1-.69.18,3.52,3.52,0,0,1-.63.06,2.85,2.85,0,0,1-.78-.18,4.5,4.5,0,0,1-1.14-.6,6.59,6.59,0,0,1-1.44-1.59,4.28,4.28,0,0,1-.66-2.43v-3.3q-.48.54-1.56,1.65t-2.4,2.31q-.48.48-1,.9a9.81,9.81,0,0,1-1,.78,15.54,15.54,0,0,1-2.49,1.77,4.53,4.53,0,0,1-2.13.69h-.24a.53.53,0,0,1-.24-.06,4.86,4.86,0,0,1-3.27-2.49,11.27,11.27,0,0,1-1.47-6.21q0-8.4,4.65-12.78A16.2,16.2,0,0,1,459.41,229Zm-7.5,4.86a12.08,12.08,0,0,0-2.88,6.84,2,2,0,0,0-.06.48v.48q0,3.12,1,4.41a3.07,3.07,0,0,0,2.61,1.23,5.39,5.39,0,0,0,1.53-.24,10.14,10.14,0,0,0,1.65-.66,11.16,11.16,0,0,0,1.65-1A19,19,0,0,0,459,244.1V230.66A8.86,8.86,0,0,0,451.91,233.84Z" transform="translate(-165 -195.25)"/><path d="M468.53,235.58q.36-.48.78-1.17a11.81,11.81,0,0,1,1-1.41l.93-1.05a11.56,11.56,0,0,1,1-1,13.08,13.08,0,0,1,1.89-1.59,3,3,0,0,1,1.47-.63,2.18,2.18,0,0,1,2.31,2.16,37.54,37.54,0,0,1,.27,5.94v1.74q.54-.72,1.11-1.56t1.17-1.68a41.76,41.76,0,0,1,3.69-4.53,6,6,0,0,1,4.47-2.07,3,3,0,0,1,2.61,1.23,4.71,4.71,0,0,1,.87,2.79,4.66,4.66,0,0,1-.78,2.37,19.29,19.29,0,0,1-1.92,2.61q-.48.6-1.05,1.2t-1.17,1.14l-1,1-.9.9q.06-.12.12-.27t.12-.33q.18-.54.36-1.29t.3-1.53a5.17,5.17,0,0,1,0-.57,5.17,5.17,0,0,0,0-.57,4.72,4.72,0,0,0-.42-2.07,1.57,1.57,0,0,0-1.56-.87,2.19,2.19,0,0,0-1.2.54,10.79,10.79,0,0,0-1.44,1.32q-.3.3-.57.63t-.57.63q-1,1.14-2.34,3.12v11.16a3,3,0,0,1-.54.57,13.23,13.23,0,0,1-1.38,1.11,10.82,10.82,0,0,1-1.71,1,6.58,6.58,0,0,1-1.95.54V235.16a1.31,1.31,0,0,0-.3-.81,1.06,1.06,0,0,0-.9-.39,2.73,2.73,0,0,0-1.26.39,6.44,6.44,0,0,0-1.56,1.29Z" transform="translate(-165 -195.25)"/><path d="M391.49,299.66a11.79,11.79,0,0,1,3.45-8.5A10.9,10.9,0,0,1,403,287.6l19.86-.06a9.06,9.06,0,0,0,.78,3.14c.44,1,.92,1.91,1.44,2.83a3.35,3.35,0,0,0,.27.45,3.47,3.47,0,0,1,.27.46c.52.88,1,1.79,1.5,2.74a12.76,12.76,0,0,1,1.08,3c-.64-.72-1.27-1.4-1.89-2.05s-1.25-1.24-1.89-1.81a27.5,27.5,0,0,0-8.37-5.46,29,29,0,0,0-10.77-1.78q-5.94,0-8.43,2.44a7.62,7.62,0,0,0-2.49,5.61,6.7,6.7,0,0,0,4.68,6.82,60.25,60.25,0,0,0,10.8,2.85q.78.18,1.59.3t1.59.3a48.35,48.35,0,0,1,12.84,4.27q5.82,2.94,5.82,11.23,0,.66,0,1.35a10.29,10.29,0,0,1-.15,1.36,18,18,0,0,1-5.1,10.36q-4.44,4.71-15.36,4.71-1.92,0-4.08-.12a39.63,39.63,0,0,1-4.32-.48,25.42,25.42,0,0,1-11.1-4.62q-5-3.66-5-12.48v-.87a7.5,7.5,0,0,1,.06-.93,12,12,0,0,1,.84-3.72A5.78,5.78,0,0,1,390,314.6a5.11,5.11,0,0,0-1.23,2.4,13.44,13.44,0,0,0-.27,2.7v.6q0,7.2,7.38,11.76t18.66,4.56q7.14,0,10.38-2.55t3.24-7.65q0-6.72-5.4-8.91a63.69,63.69,0,0,0-12-3.45,4,4,0,0,0-.48-.09l-.48-.09A58.82,58.82,0,0,1,397.22,310q-5.73-2.52-5.73-10.32Z" transform="translate(-165 -195.25)"/><path d="M464,303.2a3.21,3.21,0,0,0,.6-.78q.42-.66,1-1.38a9.41,9.41,0,0,1,1.2-1.32,4.31,4.31,0,0,1,1.26-.84l.33-.09.27,0a1.88,1.88,0,0,1,.87.36,6.88,6.88,0,0,1,1.17,1,11,11,0,0,1,1.47,1.86,5.78,5.78,0,0,1,.87,2.22.6.6,0,0,1,.06.27v.33q0,1.2-1.83,4.83t-4.05,7.83q-1.56,2.88-3,5.67T462,327.74a32.67,32.67,0,0,1-1.8-3.21q-.84-1.71-1.68-3.45l-1.92-4.2q-1-2.1-1.86-4-.42-.9-.87-1.74t-.93-1.62q-.36,1.08-.84,2.19t-1,2.19q-.78,1.68-1.74,3.39t-1.86,3.45q-.9,1.62-1.77,3.3t-1.65,3.42q-.84-1.5-2.13-4.38t-2.73-6.06q-.6-1.2-1.17-2.4t-1.17-2.34a36.94,36.94,0,0,0-3-5q-1.47-2-2.67-2a7.1,7.1,0,0,0-1.86.39,9.94,9.94,0,0,0-2.82,1.53,8.52,8.52,0,0,1,.9-1.26q.6-.72,1.32-1.5a18.62,18.62,0,0,1,2.16-1.95,8.32,8.32,0,0,1,2.46-1.35,4.55,4.55,0,0,1,.84-.27,4,4,0,0,1,.84-.09,2.8,2.8,0,0,1,1.92.75,9.87,9.87,0,0,1,1.68,2.07,57,57,0,0,1,3.18,6.63,84.54,84.54,0,0,0,4.74,9.39q.24-.36,1.05-2t1.71-3.6l.12-.24.12-.24q.84-1.8,1.56-3.42t1-2.34q-.12-.18-.24-.33a1.06,1.06,0,0,1-.18-.33l-.06-.06V307a9.53,9.53,0,0,0-1-1.26,3.79,3.79,0,0,0-1.8-1,17.31,17.31,0,0,1,1.44-2,11.52,11.52,0,0,1,1.23-1.17,3.68,3.68,0,0,1,1.35-.75,1,1,0,0,0,.24,0l.24,0q1.2,0,2.55,2.25a54.67,54.67,0,0,1,2.73,5.25q.18.48.42,1l.48,1q1.32,3,2.61,5.64a11.16,11.16,0,0,0,2.37,3.54,6.94,6.94,0,0,0,.78-1.2q.42-.78.9-1.74a8.22,8.22,0,0,0,.42-.84l.36-.84q.66-1.44,1.14-2.76a6.48,6.48,0,0,0,.48-1.92,4.35,4.35,0,0,0-.15-1.11,7.31,7.31,0,0,0-.39-1.11,10.56,10.56,0,0,0-1.71-2.67,9.13,9.13,0,0,0-2.37-2Z" transform="translate(-165 -195.25)"/><path d="M491.81,301H497v22.2a1,1,0,0,0,.27.66.57.57,0,0,0,.51.12,3.58,3.58,0,0,0,1.56-.51l2.16-1.17q-.18.36-.42.75a6.46,6.46,0,0,1-.54.75,11.91,11.91,0,0,1-1.74,1.74,6.6,6.6,0,0,1-2.1,1.2,5,5,0,0,1-.69.18,3.52,3.52,0,0,1-.63.06,2.85,2.85,0,0,1-.78-.18,4.5,4.5,0,0,1-1.14-.6,6.59,6.59,0,0,1-1.44-1.59,4.28,4.28,0,0,1-.66-2.43v-3.3q-.48.54-1.56,1.65t-2.4,2.31q-.48.48-1,.9a9.81,9.81,0,0,1-1,.78,15.54,15.54,0,0,1-2.49,1.77,4.53,4.53,0,0,1-2.13.69h-.24a.53.53,0,0,1-.24-.06,4.86,4.86,0,0,1-3.27-2.49,11.27,11.27,0,0,1-1.47-6.21q0-8.4,4.65-12.78A16.2,16.2,0,0,1,491.81,301Zm-7.5,4.86a12.08,12.08,0,0,0-2.88,6.84,2,2,0,0,0-.06.48v.48q0,3.12,1.05,4.41a3.07,3.07,0,0,0,2.61,1.23,5.39,5.39,0,0,0,1.53-.24,10.14,10.14,0,0,0,1.65-.66,11.16,11.16,0,0,0,1.65-1,19,19,0,0,0,1.53-1.26V302.66A8.86,8.86,0,0,0,484.31,305.84Z" transform="translate(-165 -195.25)"/><path d="M523.91,310.52v3.24q-.06.66-.06,1.44V321a13.18,13.18,0,0,0,.06,2,1.54,1.54,0,0,0,.27,1,.85.85,0,0,0,.69.33,2.72,2.72,0,0,0,1.35-.51,15,15,0,0,0,1.89-1.47,10.48,10.48,0,0,1-1.47,2.16,10.28,10.28,0,0,1-1.65,1.5,8.71,8.71,0,0,1-1.71.81,4.69,4.69,0,0,1-1.47.27,3.64,3.64,0,0,1-2.55-1,3.88,3.88,0,0,1-1-3l.06-13.56v-.66a2,2,0,0,0-.06-.48,2.56,2.56,0,0,0-.45-1.23,1.66,1.66,0,0,0-1.47-.57,2.23,2.23,0,0,0-1.14.36,6.31,6.31,0,0,0-1.2,1q-.48.48-1,1t-.9,1.08a25.65,25.65,0,0,0-1.59,2.31,10.86,10.86,0,0,0-.63,1.11v10.2q-.06.12-.12.27t-.12.27a5.08,5.08,0,0,1-1.77,1.74,7.11,7.11,0,0,1-2.61,1,4,4,0,0,1-.48.09l-.48,0V306.56a1.08,1.08,0,0,0-.18-.66.61.61,0,0,0-.54-.25,3.27,3.27,0,0,0-1.29.4,18.18,18.18,0,0,0-2.07,1.23,28.83,28.83,0,0,1,4.14-4.6c1.28-1.09,2.26-1.64,2.94-1.64q2,0,2.28,2.61a51.6,51.6,0,0,1,.3,5.85v1.26l1.2-1.86q.9-1.38,2.1-2.88a26.18,26.18,0,0,1,2.82-3,7.66,7.66,0,0,1,3.18-1.83,2.19,2.19,0,0,1,.57-.15,5.17,5.17,0,0,1,.57,0q2.46,0,3.06,1.77a13.45,13.45,0,0,1,.6,4.29v1.74a5.93,5.93,0,0,0-.06.84v.84Z" transform="translate(-165 -195.25)"/></g></svg>